<?xml version="1.0" encoding="UTF-8"?>
<svg id="Layer_1" xmlns="http://www.w3.org/2000/svg" version="1.1" xmlns:xlink="http://www.w3.org/1999/xlink" viewBox="0 0 1491.7 1006">
  <!-- Generator: Adobe Illustrator 30.5.1, SVG Export Plug-In . SVG Version: 2.1.4 Build 3)  -->
  <defs>
    <style>
      .st0 {
        fill: #c1702e;
      }

      .st1 {
        fill: url(#radial-gradient);
      }

      .st2 {
        fill: url(#radial-gradient5);
      }

      .st3 {
        fill: url(#radial-gradient1);
      }

      .st4 {
        fill: url(#radial-gradient7);
      }

      .st5 {
        fill: url(#radial-gradient6);
      }

      .st6 {
        fill: url(#radial-gradient2);
      }

      .st7 {
        fill: url(#radial-gradient4);
      }

      .st8 {
        fill: url(#radial-gradient3);
      }
    </style>
    <radialGradient id="radial-gradient" cx="522.2" cy="48.8" fx="522.2" fy="48.8" r="53.5" gradientTransform="translate(-507.1 550.7) scale(1.6 -1.6)" gradientUnits="userSpaceOnUse">
      <stop offset=".1" stop-color="#e5d5b0"/>
      <stop offset=".7" stop-color="#e5d5b0"/>
    </radialGradient>
    <radialGradient id="radial-gradient1" cx="490.4" cy="-81.5" fx="490.4" fy="-81.5" r="53.5" xlink:href="#radial-gradient"/>
    <radialGradient id="radial-gradient2" cx="1145" cy="-243.5" fx="1145" fy="-243.5" r="53.5" xlink:href="#radial-gradient"/>
    <radialGradient id="radial-gradient3" cx="688.8" cy="-203" fx="688.8" fy="-203" r="53.5" xlink:href="#radial-gradient"/>
    <radialGradient id="radial-gradient4" cx="451.8" cy="239.7" fx="451.8" fy="239.7" r="38.5" xlink:href="#radial-gradient"/>
    <radialGradient id="radial-gradient5" cx="436.1" cy="159" fx="436.1" fy="159" r="38.5" xlink:href="#radial-gradient"/>
    <radialGradient id="radial-gradient6" cx="982.7" cy="-188.3" fx="982.7" fy="-188.3" r="38.5" xlink:href="#radial-gradient"/>
    <radialGradient id="radial-gradient7" cx="347" cy="-75.7" fx="347" fy="-75.7" r="38.5" xlink:href="#radial-gradient"/>
  </defs>
  <path class="st0" d="M918.4,25.6l-2.7-.5,2.6-14.5-4.8-.8.4-2.1c3.4.4,4.8.3,6.2-2.9l2,.4-3.6,20.5Z"/>
  <path class="st0" d="M938.4,18.8c-.9,5.1-2.8,8-5.7,7.5-3-.5-3.8-3.8-2.8-9,.9-5.1,2.8-8,5.8-7.5,3,.5,3.8,3.8,2.8,9ZM941.1,19.3c.8-4.3.7-10.7-5.2-11.8-5.9-1-8.2,5-8.9,9.3-.8,4.3-.7,10.7,5.2,11.8,5.9,1,8.2-5,8.9-9.3Z"/>
  <path class="st0" d="M972,24.4c2.3-6.4,7.2-5.3,9.3-4.6,3.4,1.2,5.3,4.4,4,8.1-1.3,3.5-4.1,4.1-7.6,4.6l-2.4.4c-3.2.5-4.4,1.8-4.7,2.5l10.7,3.9-.8,2.3-13.4-4.9c1.6-4,4.3-5.5,7.4-6.1l3.1-.6c2.5-.4,4.3-.7,5.3-3.3.6-1.6.3-3.9-2.6-4.9-3.7-1.3-5.1,2-5.7,3.4l-2.5-.9Z"/>
  <path class="st0" d="M997,36.9c-1.8,4.9-4.1,7.4-7,6.4-2.8-1-3-4.4-1.2-9.3,1.8-4.9,4.2-7.4,7-6.4,2.8,1,3,4.4,1.2,9.3ZM999.6,37.9c1.5-4.1,2.6-10.4-3.1-12.5-5.6-2-8.9,3.5-10.4,7.6-1.5,4.1-2.6,10.4,3.1,12.5,5.6,2,8.9-3.5,10.4-7.6Z"/>
  <path class="st0" d="M1031.1,51.3c.4.2.8.5,1.1.7,1.8,1,3.9,1.3,5.2-1,.6-1.1,1-3.2-1.7-4.8-3.2-1.9-4.9.6-5.8,1.8l-2.2-1.3c1.5-2.6,4.5-5.3,9.2-2.5,3.5,2,4.4,5.2,2.8,8-1.3,2.3-3.3,2.6-4.5,2.4h0c1.4,1.6,2,3.6.6,6-1.7,3-5.3,4.7-9.9,2-1.3-.8-2.3-1.8-2.9-2.7-1.4-2.2-.7-4.6.3-6.8l2.3,1.3c-.9,1.7-1.8,4.3,1.6,6.2,2.3,1.3,4.8.9,6-1.2,1.7-3-.8-4.9-2.3-5.7-.3-.2-.7-.4-1-.6l1.1-1.9Z"/>
  <path class="st0" d="M1049.7,64c-2.6,4.5-5.4,6.5-8,5.1-2.6-1.5-2.2-4.9.4-9.4,2.6-4.5,5.4-6.6,8-5.1,2.6,1.5,2.2,4.9-.4,9.4ZM1052.1,65.4c2.2-3.7,4.4-9.8-.8-12.8-5.2-3-9.4,1.9-11.6,5.7-2.2,3.7-4.4,9.8.8,12.8,5.2,3,9.4-1.9,11.6-5.7Z"/>
  <path class="st0" d="M1086.7,82.5h0s-6.1,7.3-6.1,7.3l-5.1-4.3,11.2-3ZM1083.6,95.1l1.5-1.7-2.3-2,8.7-10.3-1.7-1.4-15.8,4-1.6,2,7,5.8-3.3,3.9,2,1.7,3.3-3.9,2.3,2Z"/>
  <path class="st0" d="M1097.3,100c-3.4,4-6.4,5.5-8.7,3.6-2.3-1.9-1.3-5.2,2-9.2,3.4-4,6.4-5.5,8.7-3.6,2.3,1.9,1.3,5.2-2,9.2ZM1099.4,101.8c2.8-3.3,6-8.9,1.4-12.8-4.6-3.8-9.6.3-12.4,3.6-2.8,3.3-6,8.9-1.4,12.8,4.6,3.8,9.6-.3,12.4-3.6Z"/>
  <path class="st0" d="M1124.3,124.2c1.1.2,2.4.8,3.6,2.3,2.2,2.6,2.6,6.8-.7,9.5-1.8,1.5-6.3,3.9-10.5-1.1-1.8-2.1-3.2-5.5,0-8.8l1.7,2.1c-1.7,1.8-1.3,3.8.2,5.6,1.7,2.1,4.5,2,6.5.3,2.3-1.9,2.2-4.5.6-6.5-1-1.2-2.4-1.7-4-1.7l-1.4-1.8,9.6-6,6.9,8.3-2,1.6-5.7-6.8-5,3Z"/>
  <path class="st0" d="M1138.7,144.4c-4,3.4-7.3,4.3-9.2,2-1.9-2.3-.4-5.3,3.6-8.7,4-3.4,7.3-4.3,9.2-2,1.9,2.3.4,5.3-3.6,8.7ZM1140.5,146.5c3.3-2.8,7.5-7.8,3.6-12.3-3.9-4.6-9.5-1.4-12.8,1.4-3.3,2.8-7.5,7.7-3.6,12.3,3.9,4.6,9.5,1.4,12.8-1.4Z"/>
  <path class="st0" d="M1155.6,175c2.1-1.2,4.6-1.1,6.1,1.4,1.6,2.8-.1,4.9-1.7,5.8-2.5,1.4-5,1-6.2-1.2-1.5-2.6-.1-5,1.8-6.1ZM1168.7,179.9c3.6-2.4,3-6,1.8-8-3.1-5.4-9.6-3.4-13.5-1.1-2.4,1.4-4.4,2.9-5.5,5-1.3,2.4-.7,4.8,0,6.2,1.5,2.5,2.8,3.2,4.4,3.6,2,.5,3.7.2,5.5-.9,4.3-2.5,3.7-6.7,2.5-8.9-1.4-2.5-3.4-3-4.7-3h0c1.9-1.2,7.1-3.2,9.2.4,1.1,1.9.4,3.5-1,4.7l1.3,2.2Z"/>
  <path class="st0" d="M1171.4,194.7c-4.5,2.6-7.9,3-9.4.4-1.5-2.6.5-5.3,5.1-7.9,4.5-2.6,7.9-3,9.4-.4,1.5,2.6-.5,5.3-5.1,7.9ZM1172.8,197.1c3.8-2.2,8.7-6.3,5.7-11.5-3-5.2-9.1-3-12.9-.8-3.8,2.2-8.7,6.3-5.7,11.5,3,5.2,9.1,3,12.9.8Z"/>
  <path class="st0" d="M1194.7,219.9l4.9,13.5-2.1.8c-2.7-1.2-10.7-3.6-20-1.8l-1-2.7c5.6-1.3,14-.3,19.7,1.9l-3.9-10.8,2.4-.9Z"/>
  <path class="st0" d="M1194.7,249.6c-4.9,1.8-8.3,1.6-9.4-1.2-1-2.8,1.5-5.2,6.4-6.9,4.9-1.8,8.3-1.6,9.4,1.2,1,2.8-1.5,5.2-6.4,6.9ZM1195.6,252.3c4.1-1.5,9.7-4.7,7.6-10.4-2.1-5.6-8.4-4.5-12.5-3.1-4.1,1.5-9.7,4.7-7.6,10.4,2,5.6,8.4,4.5,12.5,3.1Z"/>
  <path class="st0" d="M1204,286.6c.4,2.3-.5,4.5-3.3,5-3.2.6-4.3-1.6-4.6-3.4-.6-3.6,1.7-4.8,3.3-5.1,1.9-.3,4,.7,4.6,3.6ZM1210.7,291.8c2.4-.4,5-2.7,4.2-7.3-.9-4.9-4.6-5.6-6.7-5.2-1.9.3-3.1,1.6-3.5,3.5-1.3-2-3.1-3-5.6-2.6-1,.2-3.2.6-4.5,3-1,1.9-.9,4.1-.7,5.2.9,4.8,4.4,6.4,7.7,5.8,1.6-.3,3.7-1.3,4.4-4.2.6.8,1.8,2.4,4.8,1.9ZM1206.2,286.1c-.3-1.9.6-3.8,2.5-4.1,1.3-.2,3.3.1,3.8,2.8.5,3-1.1,4.1-2.4,4.4-1.9.3-3.6-.8-4-3.1Z"/>
  <path class="st0" d="M1208,307c-5.1.9-8.5.1-9-2.8-.5-2.9,2.3-4.8,7.5-5.7,5.1-.9,8.5-.1,9,2.8.5,2.9-2.3,4.8-7.5,5.7ZM1208.4,309.8c4.3-.8,10.3-3,9.3-8.9-1-5.9-7.5-5.9-11.8-5.2-4.3.8-10.4,3-9.3,8.9,1,5.9,7.5,5.9,11.8,5.2Z"/>
  <path class="st0" d="M1210.4,348.2c0-1.8.5-4.2,4.5-4.2s4.7,1.6,4.7,4-2.1,4.2-4.5,4.2c-4.1,0-4.8-2.6-4.8-4ZM1208,347.8c0,1.9.9,4,2.5,4.8h0c-5.4-.6-7.8-2.1-7.8-4.9s1.3-3.4,3.4-3.5v-2.6c-2,0-5.6,1.3-5.6,6.2,0,7.2,9.5,7.6,11.8,7.6,3.4,0,9.7-.7,9.7-7.3s-3.4-6.7-7.2-6.7-6.7,2.7-6.7,6.5Z"/>
  <path class="st0" d="M1211.2,369.1c-5.2,0-8.4-1.4-8.4-4.3s3.2-4.4,8.4-4.4,8.4,1.4,8.4,4.4-3.1,4.3-8.4,4.3ZM1211.2,371.8c4.3,0,10.7-1.2,10.7-7.1s-6.4-7.1-10.7-7.1-10.7,1.2-10.7,7.1c0,6,6.4,7.1,10.7,7.1Z"/>
  <path class="st0" d="M1198.6,399.7l.5-2.7,14.6,2.6.8-4.8,2,.4c-.4,3.4-.3,4.8,2.9,6.2l-.4,2-20.6-3.6Z"/>
  <path class="st0" d="M1205.4,419.6c-5.1-.9-8-2.8-7.5-5.7.5-2.9,3.9-3.7,9-2.8,5.2.9,8,2.8,7.5,5.7-.5,2.9-3.9,3.7-9,2.8ZM1204.9,422.4c4.3.7,10.8.7,11.8-5.2,1-5.9-5-8.1-9.3-8.9-4.3-.8-10.7-.7-11.8,5.2-1,5.9,5,8.1,9.3,8.9Z"/>
  <path class="st0" d="M1202.5,435.8c-5.1-.9-8-2.8-7.5-5.7.5-2.9,3.9-3.7,9-2.8,5.1.9,8,2.8,7.5,5.7-.5,2.9-3.9,3.7-9,2.8ZM1202.1,438.6c4.3.8,10.8.7,11.8-5.2,1-5.9-5-8.1-9.3-8.9-4.3-.7-10.7-.7-11.8,5.2-1,5.9,5,8.1,9.3,8.9Z"/>
  <path class="st0" d="M1184.7,458.3l1-2.6,13.9,5.1,1.7-4.6,2,.7c-.9,3.3-1.1,4.7,1.8,6.6l-.7,1.9-19.6-7.1Z"/>
  <path class="st0" d="M1179.1,473.8l1-2.6,13.9,5.1,1.7-4.6,2,.7c-.9,3.2-1.1,4.7,1.8,6.6l-.7,1.9-19.6-7.1Z"/>
  <path class="st0" d="M1182.3,494.5c-4.9-1.8-7.4-4.1-6.4-6.9,1-2.8,4.5-3,9.4-1.2,4.9,1.8,7.4,4.1,6.4,6.9-1,2.8-4.5,3-9.4,1.2ZM1181.4,497.2c4.1,1.5,10.5,2.6,12.5-3.1,2-5.6-3.6-8.9-7.6-10.4-4.1-1.5-10.5-2.6-12.5,3.1-2,5.6,3.5,8.9,7.6,10.4Z"/>
  <path class="st0" d="M1163.1,510.2l1.4-2.4,12.8,7.4,2.4-4.2,1.8,1c-1.5,3-1.9,4.4.6,6.8l-1,1.8-18.1-10.4Z"/>
  <path class="st0" d="M1171.1,523.1c5.9,3.4,4,8,2.9,10-1.8,3.1-5.3,4.5-8.7,2.5-3.2-1.9-3.4-4.8-3.2-8.3v-2.5c.1-3.3-1-4.6-1.6-5.1l-5.7,9.8-2.1-1.2,7.1-12.3c3.7,2.3,4.7,5.1,4.7,8.4v3.2c0,2.5,0,4.4,2.3,5.7,1.4.8,3.8,1,5.3-1.7,2-3.4-1.1-5.4-2.3-6.2l1.3-2.3Z"/>
  <path class="st0" d="M1154.4,545.5c-4.5-2.6-6.6-5.4-5.1-7.9,1.5-2.6,4.9-2.2,9.4.4,4.5,2.6,6.6,5.4,5.1,7.9-1.5,2.6-4.9,2.2-9.4-.4ZM1153,547.9c3.8,2.2,9.9,4.3,12.9-.8,3-5.2-2-9.4-5.7-11.5-3.8-2.2-9.9-4.3-12.9.8-3,5.2,1.9,9.4,5.7,11.5Z"/>
  <path class="st0" d="M1131.3,560.6l1.8-2.1,11.3,9.5,3.1-3.7,1.6,1.3c-2,2.7-2.6,4-.6,6.8l-1.3,1.6-16-13.4Z"/>
  <path class="st0" d="M1132.4,577.8c-.3.3-.6.7-.9,1-1.3,1.5-1.9,3.6,0,5.2.9.8,3,1.5,5-.8,2.4-2.8.2-5-.8-6l1.6-2c2.3,2,4.4,5.3.9,9.5-2.6,3.1-5.9,3.4-8.3,1.4-2.1-1.7-2-3.7-1.6-4.8h0c-1.8,1.1-3.8,1.3-6-.5-2.6-2.2-3.7-6-.3-10,1-1.2,2.1-1.9,3.2-2.4,2.4-1,4.7,0,6.6,1.5l-1.7,2.1c-1.6-1.2-3.9-2.5-6.4.5-1.7,2-1.7,4.5.2,6.1,2.7,2.3,4.9.1,6.1-1.3.3-.3.5-.6.7-.9l1.7,1.4Z"/>
  <path class="st0" d="M1116.6,593.8c-4-3.3-5.5-6.4-3.6-8.7,1.9-2.3,5.2-1.3,9.2,2,4,3.4,5.5,6.4,3.6,8.7-1.9,2.3-5.2,1.3-9.2-2ZM1114.8,596c3.3,2.8,9,6,12.8,1.4,3.9-4.6-.3-9.5-3.6-12.3-3.3-2.8-9-6-12.8-1.4-3.9,4.6.3,9.5,3.6,12.3Z"/>
  <path class="st0" d="M1093.2,601.4l2.1-1.8,9.5,11.3,3.7-3.1,1.3,1.6c-2.4,2.4-3.3,3.5-1.7,6.6l-1.6,1.3-13.4-15.9Z"/>
  <path class="st0" d="M1092.1,624.3h0s-6.1-7.2-6.1-7.2l5.1-4.3,1,11.5ZM1080.1,619l1.4,1.7,2.3-2,8.7,10.3,1.7-1.4-1.2-16.2-1.6-2-7,5.8-3.3-3.9-2,1.7,3.3,3.9-2.3,2Z"/>
  <path class="st0" d="M1073,631.6c-3.4-4-4.3-7.3-2-9.2,2.3-1.9,5.4-.4,8.7,3.6,3.4,4,4.3,7.3,2,9.2-2.3,1.9-5.4.4-8.7-3.6ZM1070.8,633.4c2.8,3.3,7.8,7.5,12.4,3.6,4.6-3.8,1.4-9.5-1.4-12.8-2.8-3.3-7.8-7.4-12.4-3.6-4.6,3.8-1.4,9.4,1.4,12.8Z"/>
  <path class="st0" d="M1045.6,638.6l2.4-1.4,7.4,12.8,4.2-2.4,1,1.8c-2.8,1.9-3.9,2.9-2.9,6.2l-1.8,1-10.4-18Z"/>
  <path class="st0" d="M1042.8,654.2c-.4,1-1.2,2.2-2.8,3.1-2.9,1.7-7.1,1.4-9.3-2.3-1.2-2-2.8-6.9,2.9-10.1,2.4-1.4,5.9-2.2,8.7,1.6l-2.3,1.3c-1.4-2-3.5-2-5.6-.8-2.3,1.4-2.7,4.1-1.4,6.3,1.5,2.6,4.1,3,6.3,1.7,1.3-.8,2.1-2.1,2.3-3.6l2-1,4.2,10.4-9.4,5.4-1.3-2.2,7.7-4.4-2.1-5.4Z"/>
  <path class="st0" d="M1020.4,664.8c-2.6-4.5-3-7.9-.4-9.4,2.6-1.5,5.4.5,8,5.1,2.6,4.5,3,7.9.4,9.4-2.6,1.5-5.4-.5-8-5ZM1018,666.2c2.2,3.7,6.4,8.7,11.6,5.7,5.2-3,3-9.1.8-12.8-2.2-3.7-6.4-8.7-11.6-5.7-5.2,3-3,9.1-.8,12.8Z"/>
  <path class="st0" d="M994.1,665.3l2.6-1,5.1,13.9,4.6-1.7.7,2c-3.1,1.4-4.3,2.2-3.9,5.6l-1.9.7-7.1-19.6Z"/>
  <path class="st0" d="M986.9,674.8c.8,2.3.2,4.7-2.5,5.7-3,1.1-4.8-1-5.5-2.7-1-2.6-.1-5,2.2-5.9,2.9-1,5,.8,5.7,2.8ZM979.8,686.8c1.7,3.9,5.4,3.9,7.6,3.1,5.9-2.1,5-8.8,3.4-13.1-.9-2.6-2.1-4.8-4-6.2-2.2-1.7-4.6-1.5-6.1-1-2.8,1-3.7,2.2-4.3,3.7-.8,1.9-.8,3.6,0,5.6,1.7,4.7,6,4.8,8.4,4,2.7-1,3.6-2.8,3.8-4.1h0c.8,2.1,1.8,7.6-2,9-2.1.8-3.5-.2-4.5-1.8l-2.4.9Z"/>
  <path class="st0" d="M964.7,686.8c-1.8-4.9-1.6-8.3,1.2-9.3,2.8-1,5.2,1.5,7,6.4,1.8,4.9,1.6,8.3-1.2,9.3-2.8,1-5.2-1.5-7-6.4ZM962.1,687.7c1.5,4.1,4.7,9.6,10.4,7.6,5.6-2,4.5-8.4,3.1-12.5-1.5-4.1-4.8-9.6-10.4-7.6-5.6,2.1-4.5,8.4-3.1,12.5Z"/>
  <path class="st0" d="M937.4,682.4l2.7-.5,2.6,14.5,4.8-.8.4,2c-3.3.8-4.6,1.4-4.8,4.9l-2,.3-3.6-20.5Z"/>
  <path class="st0" d="M934.1,703.7l-14.2,2.5-.4-2.2c1.7-2.5,5.4-9.9,5.3-19.3l2.8-.5c.3,5.8-2.2,13.8-5.3,19l11.3-2,.4,2.5Z"/>
  <path class="st0" d="M904.7,698.5c-.9-5.1,0-8.5,2.8-9,3-.5,4.8,2.3,5.8,7.5.9,5.1.1,8.5-2.9,9-2.9.5-4.8-2.3-5.8-7.5ZM901.9,698.9c.7,4.3,3,10.3,8.9,9.3,5.9-1,5.9-7.5,5.2-11.8-.7-4.3-3-10.3-8.9-9.3-5.9,1-5.9,7.5-5.2,11.8Z"/>
  <path class="st0" d="M820.1,687.6l2.8.5-2.6,14.5,4.8.8-.4,2c-3.4-.4-4.8-.3-6.2,2.9l-2-.4,3.6-20.5Z"/>
  <path class="st0" d="M804.6,694.3c1.7.3,4.1,1.2,3.4,5.2-.5,2.7-2.4,4.3-4.8,3.9-3-.5-3.8-2.8-3.4-5.1.7-4,3.4-4.2,4.8-4ZM805.4,692.1c-1.9-.3-4.1.2-5.1,1.6h0c1.6-5.3,3.5-7.4,6.3-6.9,2.1.4,3.1,1.9,2.9,4l2.6.5c.3-2-.3-5.7-5.1-6.5-7.1-1.2-9.1,8-9.5,10.2-.6,3.3-1,9.6,5.5,10.8,4.3.8,7.2-2.1,7.9-5.9.7-4.1-1.5-7.1-5.3-7.8Z"/>
  <path class="st0" d="M783.8,691.5c.9-5.1,2.8-8,5.8-7.5,3,.5,3.8,3.9,2.8,9-.9,5.1-2.8,8-5.8,7.5-3-.5-3.7-3.8-2.8-9ZM781.1,691c-.7,4.3-.7,10.7,5.2,11.8,5.9,1,8.2-5,8.9-9.3.8-4.3.7-10.7-5.2-11.8-5.9-1-8.2,5-8.9,9.3Z"/>
  <path class="st0" d="M768.2,690.8c-2.3,6.4-7.2,5.3-9.3,4.5-3.4-1.2-5.3-4.4-4-8.1,1.3-3.5,4.1-4.1,7.6-4.6l2.4-.4c3.2-.5,4.4-1.8,4.8-2.5l-10.7-3.9.8-2.3,13.4,4.9c-1.6,4-4.3,5.5-7.4,6.1l-3.1.6c-2.5.4-4.3.7-5.3,3.3-.6,1.6-.3,3.9,2.6,4.9,3.7,1.4,5.1-2,5.7-3.4l2.4.9Z"/>
  <path class="st0" d="M743.1,678.2c1.8-4.9,4.1-7.4,7-6.4,2.8,1,3,4.4,1.2,9.3-1.8,4.9-4.1,7.4-7,6.4-2.8-1-3-4.4-1.2-9.3ZM740.5,677.3c-1.5,4.1-2.6,10.4,3.1,12.5,5.6,2,8.9-3.5,10.4-7.6,1.5-4.1,2.6-10.4-3.1-12.5-5.6-2-8.9,3.5-10.4,7.6Z"/>
  <path class="st0" d="M727.6,672.6c1.8-4.9,4.1-7.4,7-6.4,2.8,1,3,4.4,1.2,9.3-1.8,4.9-4.1,7.4-7,6.4-2.8-1-3-4.4-1.2-9.3ZM725,671.7c-1.5,4.1-2.6,10.4,3.1,12.5,5.6,2,8.9-3.5,10.4-7.6,1.5-4.1,2.6-10.4-3.1-12.5-5.6-2-8.9,3.5-10.4,7.6Z"/>
  <path class="st0" d="M711.7,668.3c-3.4,5.9-8,4-10,2.9-3.1-1.8-4.5-5.3-2.5-8.6,1.9-3.2,4.8-3.4,8.3-3.2h2.5c3.3.1,4.6-1,5.1-1.6l-9.8-5.7,1.2-2.1,12.4,7.1c-2.3,3.7-5.2,4.7-8.4,4.7h-3.2c-2.6,0-4.4,0-5.7,2.3-.8,1.4-1,3.8,1.7,5.3,3.4,2,5.4-1.1,6.2-2.3l2.3,1.3Z"/>
  <path class="st0" d="M696,643.8l2.4,1.4-7.4,12.8,4.2,2.4-1,1.8c-3-1.5-4.4-1.9-6.8.6l-1.8-1,10.4-18Z"/>
  <path class="st0" d="M674.9,643.4c2.6-4.5,5.4-6.6,8-5.1,2.6,1.5,2.2,4.9-.4,9.4-2.6,4.5-5.4,6.5-8,5.1-2.6-1.5-2.2-4.9.4-9.4ZM672.5,642c-2.2,3.7-4.4,9.8.8,12.8,5.2,3,9.4-1.9,11.6-5.7,2.2-3.7,4.4-9.8-.8-12.8-5.2-3-9.4,1.9-11.6,5.7Z"/>
  <path class="st0" d="M657.9,635.4c-4.4,5.2-8.6,2.5-10.3,1.1-2.8-2.3-3.5-6-1-9,2.4-2.9,5.3-2.5,8.8-1.8l2.4.5c3.2.6,4.7-.2,5.3-.8l-8.7-7.3,1.6-1.9,10.9,9.1c-2.9,3.2-5.9,3.7-9.1,3.2l-3.1-.5c-2.5-.5-4.3-.8-6.1,1.3-1.1,1.3-1.6,3.6.7,5.5,3,2.5,5.5-.2,6.5-1.2l2,1.7Z"/>
  <path class="st0" d="M645.3,624.8c-4.4,5.2-8.6,2.5-10.3,1.1-2.8-2.3-3.5-6-1-9,2.4-2.8,5.3-2.5,8.8-1.7l2.4.5c3.2.6,4.7-.2,5.3-.8l-8.7-7.3,1.6-1.9,10.9,9.2c-2.9,3.2-5.9,3.7-9.1,3.2l-3.1-.5c-2.5-.5-4.3-.8-6.1,1.3-1.1,1.3-1.6,3.6.7,5.5,3,2.5,5.5-.2,6.5-1.2l2,1.7Z"/>
  <path class="st0" d="M626,604.5c3.4-4,6.4-5.5,8.7-3.6,2.3,1.9,1.3,5.2-2,9.2-3.4,4-6.4,5.5-8.7,3.6-2.3-1.9-1.3-5.2,2-9.2ZM623.9,602.7c-2.8,3.3-6,8.9-1.4,12.8,4.6,3.8,9.6-.3,12.4-3.6,2.8-3.3,6-8.9,1.4-12.8-4.6-3.8-9.6.3-12.4,3.6Z"/>
  <path class="st0" d="M612.7,596.3c-5.2,4.4-8.9,1-10.4-.7-2.3-2.8-2.4-6.5.6-9,2.9-2.4,5.7-1.5,8.9-.2l2.3.9c3,1.2,4.7.6,5.4.2l-7.3-8.7,1.9-1.6,9.2,10.9c-3.4,2.7-6.4,2.6-9.5,1.6l-3-1.1c-2.4-.9-4.1-1.6-6.2.2-1.3,1.1-2.2,3.2-.2,5.6,2.5,3,5.5.8,6.6,0l1.7,2Z"/>
  <path class="st0" d="M599.8,578.6c-.3-.4-.5-.7-.8-1.1-1.3-1.5-3.2-2.5-5.2-.9-1,.8-2,2.7,0,5.1,2.4,2.8,4.9,1.1,6.1.2l1.6,2c-2.3,2-6,3.4-9.6-.8-2.6-3.1-2.4-6.4,0-8.4,2-1.7,4-1.4,5-.7h0c-.8-2-.6-4,1.5-5.8,2.6-2.2,6.6-2.6,10,1.4,1,1.2,1.5,2.4,1.8,3.5.6,2.5-.9,4.6-2.6,6.2l-1.7-2.1c1.4-1.3,3.2-3.4.7-6.3-1.7-2-4.2-2.4-6-.9-2.7,2.2-1,4.8.2,6.2.2.3.5.6.8.9l-1.7,1.4Z"/>
  <path class="st0" d="M586.6,560.3c4-3.4,7.3-4.3,9.2-2,1.9,2.3.4,5.3-3.6,8.7-4,3.4-7.3,4.3-9.2,2-1.9-2.3-.4-5.3,3.6-8.7ZM584.8,558.2c-3.3,2.8-7.5,7.7-3.6,12.3,3.9,4.6,9.5,1.4,12.8-1.4,3.3-2.8,7.5-7.8,3.6-12.3-3.9-4.6-9.5-1.4-12.8,1.4Z"/>
  <path class="st0" d="M576.9,551.8c-5.9,3.4-9-.6-10.1-2.5-1.8-3.1-1.2-6.8,2.1-8.7,3.2-1.9,5.8-.5,8.8,1.3l2.1,1.3c2.8,1.7,4.5,1.4,5.3,1.1l-5.7-9.8,2.1-1.2,7.1,12.3c-3.8,2-6.8,1.5-9.6,0l-2.8-1.6c-2.2-1.3-3.8-2.2-6.1-.9-1.4.8-2.7,2.8-1.2,5.4,2,3.4,5.3,1.7,6.6,1.1l1.3,2.3Z"/>
  <path class="st0" d="M561.4,531.9h0c0,0,8.2-4.8,8.2-4.8l3.4,5.8-11.5-1ZM568.7,521.1l-2,1.1,1.5,2.6-11.7,6.7,1.1,1.9,16.3,1.7,2.2-1.3-4.6-7.9,4.4-2.5-1.3-2.3-4.4,2.5-1.5-2.6Z"/>
  <path class="st0" d="M557.5,511.9c4.5-2.6,7.9-3,9.4-.4,1.5,2.6-.5,5.3-5.1,7.9-4.5,2.6-7.9,3-9.4.4-1.5-2.6.5-5.3,5.1-7.9ZM556.1,509.5c-3.8,2.2-8.7,6.3-5.7,11.5,3,5.2,9.1,3,12.9.8,3.8-2.2,8.7-6.3,5.7-11.5-3-5.2-9.1-3-12.9-.8Z"/>
  <path class="st0" d="M545.5,495.8c-6.4,2.3-8.7-2.1-9.5-4.2-1.2-3.4,0-6.9,3.6-8.2,3.5-1.3,5.8.5,8.5,2.8l1.9,1.6c2.5,2.1,4.2,2.2,5,2l-3.9-10.6,2.3-.8,4.9,13.4c-4.1,1.3-7,.3-9.5-1.8l-2.5-2c-2-1.7-3.3-2.9-5.9-1.9-1.6.6-3.2,2.3-2.1,5.1,1.4,3.7,4.9,2.6,6.3,2.2l.9,2.5Z"/>
  <path class="st0" d="M539.9,477c-.9-.6-2-1.6-2.6-3.3-1.2-3.2-.1-7.2,3.9-8.7,2.2-.8,7.2-1.5,9.5,4.6.9,2.6,1.1,6.2-3.1,8.3l-.9-2.5c2.2-1.1,2.6-3.1,1.8-5.3-.9-2.5-3.5-3.4-6-2.5-2.8,1-3.6,3.5-2.8,5.9.5,1.4,1.7,2.5,3.2,2.9l.7,2.1-11.1,2.3-3.7-10.1,2.4-.9,3,8.3,5.7-1.1Z"/>
  <path class="st0" d="M533.3,453.1c4.9-1.8,8.3-1.6,9.4,1.2,1,2.8-1.5,5.2-6.4,6.9-4.9,1.8-8.3,1.6-9.4-1.2-1-2.8,1.5-5.2,6.4-6.9ZM532.4,450.5c-4.1,1.5-9.7,4.7-7.6,10.4,2,5.6,8.4,4.5,12.5,3.1,4.1-1.5,9.7-4.7,7.6-10.4-2.1-5.6-8.4-4.5-12.5-3Z"/>
  <path class="st0" d="M526,438.3c-6.7,1.2-8.2-3.6-8.6-5.8-.6-3.6,1.2-6.8,5-7.5,3.7-.6,5.7,1.5,7.8,4.3l1.5,1.9c2,2.5,3.8,2.9,4.6,2.8l-2-11.1,2.4-.4,2.5,14c-4.3.6-6.9-.9-9-3.4l-2.1-2.4c-1.6-2-2.8-3.4-5.5-2.9-1.6.3-3.5,1.7-3,4.7.7,3.9,4.3,3.4,5.8,3.3l.5,2.6Z"/>
  <path class="st0" d="M529.5,418.1c-2.4.4-4.7-.6-5.2-3.4-.6-3.2,1.8-4.6,3.6-4.9,2.8-.5,5,.7,5.4,3.2.5,3-1.6,4.7-3.8,5.1ZM518.8,409c-4.1,1-4.8,4.6-4.4,6.9,1.1,6.1,7.8,6.4,12.3,5.7,2.7-.5,5.1-1.3,6.8-2.8,2-1.9,2.3-4.2,2.1-5.8-.5-2.9-1.5-4-2.9-4.8-1.8-1.1-3.4-1.4-5.5-1-4.9.9-5.8,5-5.4,7.6.5,2.8,2.2,4,3.4,4.4h0c-2.2.4-7.8.5-8.5-3.5-.4-2.2.8-3.4,2.5-4.1l-.4-2.5Z"/>
  <path class="st0" d="M521.5,394.2c5.1-.9,8.5-.1,9,2.8.5,3-2.3,4.8-7.5,5.8-5.1.9-8.5,0-9-2.9-.5-2.9,2.3-4.8,7.5-5.7ZM521,391.5c-4.3.8-10.3,3-9.3,8.9,1,5.9,7.5,5.9,11.8,5.2,4.3-.7,10.4-3,9.3-8.9-1-5.9-7.5-5.9-11.8-5.2Z"/>
  <path class="st0" d="M517.4,378c-6.8,0-7.5-4.9-7.5-7.2,0-3.6,2.3-6.5,6.2-6.5s5.3,2.5,7,5.6l1.2,2.2c1.6,2.8,3.2,3.5,4,3.6v-11.3h2.5v14.2c-4.3-.1-6.6-2.1-8.3-4.9l-1.6-2.8c-1.3-2.2-2.1-3.8-4.9-3.8s-3.8,1.1-3.8,4.1,3.7,4.1,5.1,4.2v2.6Z"/>
  <path class="st0" d="M510.4,361.7v-14.4h2.3c2.2,2.1,8.8,7,18.1,8.6v2.9c-5.7-.7-13.2-4.5-17.9-8.5v11.5h-2.5Z"/>
  <path class="st0" d="M520.6,333.8c5.2,0,8.4,1.4,8.4,4.4s-3.2,4.3-8.4,4.3-8.4-1.4-8.4-4.3,3.1-4.4,8.4-4.4ZM520.6,331c-4.3,0-10.7,1.2-10.7,7.1s6.4,7.1,10.7,7.1,10.7-1.2,10.7-7.1-6.4-7.1-10.7-7.1Z"/>
  <path class="st0" d="M518,318.6c-6.7-1.2-6.5-6.2-6.1-8.4.6-3.6,3.4-6,7.3-5.3,3.7.6,4.8,3.3,5.9,6.7l.8,2.3c1.1,3.1,2.6,4,3.3,4.2l2-11.1,2.4.4-2.5,14c-4.2-.9-6.2-3.2-7.3-6.2l-1.1-3c-.9-2.4-1.4-4.1-4.1-4.6-1.6-.3-3.9.4-4.4,3.4-.7,3.9,2.9,4.7,4.3,5l-.5,2.6Z"/>
  <path class="st0" d="M525.6,296.2c.4-2.3,2-4,4.8-3.5,3.2.6,3.5,2.9,3.2,4.8-.6,3.6-3.2,3.9-4.9,3.6-1.9-.3-3.6-2-3.1-4.9ZM521.1,289c-2.4-.4-5.6.8-6.4,5.4-.9,4.9,2.4,6.8,4.5,7.2,1.9.3,3.5-.4,4.5-2.1.5,2.3,1.9,3.9,4.4,4.3,1,.2,3.2.6,5.3-1.2,1.6-1.4,2.2-3.5,2.4-4.7.9-4.8-2-7.5-5.3-8.1-1.6-.3-3.9,0-5.6,2.5-.3-1-.9-2.9-3.9-3.4ZM523.4,295.9c-.3,1.9-1.8,3.4-3.8,3-1.3-.2-3.1-1.2-2.6-4,.5-3,2.5-3.5,3.7-3.3,1.9.3,3.1,2,2.7,4.2Z"/>
  <path class="st0" d="M528.9,275.6c5.1.9,8,2.8,7.5,5.7-.5,2.9-3.9,3.7-9,2.8-5.1-.9-8-2.8-7.5-5.7.5-2.9,3.9-3.7,9-2.8ZM529.4,272.9c-4.3-.8-10.7-.7-11.8,5.2-1,5.9,5,8.1,9.3,8.9,4.3.7,10.7.7,11.8-5.2,1-5.9-5-8.1-9.3-8.9Z"/>
  <path class="st0" d="M530.1,257.9c-6.4-2.3-5.3-7.2-4.6-9.3,1.2-3.4,4.4-5.3,8.1-4,3.5,1.3,4.2,4.1,4.6,7.6l.4,2.4c.5,3.2,1.8,4.3,2.5,4.7l3.9-10.6,2.3.8-4.9,13.4c-4-1.6-5.5-4.2-6.1-7.4l-.6-3.1c-.4-2.5-.7-4.3-3.3-5.3-1.6-.6-3.9-.3-5,2.6-1.4,3.7,2,5.1,3.4,5.7l-.9,2.4Z"/>
  <path class="st0" d="M542,237.4c-.6,1.6-1.9,3.8-5.7,2.4-2.6-1-3.9-3.1-3-5.4,1-2.8,3.4-3.2,5.6-2.4,3.9,1.4,3.6,4.1,3.1,5.4ZM544,238.5c.7-1.8.5-4.1-.7-5.3h0c4.8,2.4,6.6,4.7,5.6,7.3-.7,2-2.4,2.7-4.4,2.1l-.9,2.5c1.9.7,5.7.7,7.4-3.9,2.5-6.7-6.4-10.3-8.5-11.1-3.2-1.2-9.3-2.7-11.6,3.5-1.5,4.1.9,7.4,4.4,8.7,3.9,1.4,7.3-.2,8.6-3.8Z"/>
  <path class="st0" d="M548.3,217.5c4.9,1.8,7.4,4.1,6.4,6.9-1,2.8-4.4,3-9.4,1.2-4.9-1.8-7.4-4.1-6.4-6.9,1-2.8,4.5-3,9.4-1.2ZM549.3,214.9c-4.1-1.5-10.5-2.6-12.5,3.1-2,5.6,3.6,8.9,7.6,10.4,4.1,1.5,10.5,2.6,12.5-3,2.1-5.6-3.5-8.9-7.6-10.4Z"/>
  <path class="st0" d="M555.6,198.7c.2-.4.5-.8.7-1.1,1-1.7,1.3-3.8-1-5.1-1.1-.6-3.2-1-4.8,1.7-1.9,3.2.7,4.9,1.8,5.7l-1.3,2.2c-2.6-1.5-5.3-4.5-2.5-9.2,2-3.5,5.2-4.4,8-2.8,2.3,1.3,2.6,3.3,2.4,4.5h0c1.6-1.4,3.5-1.9,6-.5,3,1.7,4.7,5.2,2.1,9.8-.8,1.3-1.8,2.3-2.7,2.9-2.2,1.4-4.6.7-6.8-.3l1.4-2.3c1.7.9,4.3,1.8,6.2-1.5,1.3-2.3.9-4.7-1.2-5.9-3-1.7-4.9.8-5.8,2.3-.2.3-.4.7-.6,1l-1.9-1.1Z"/>
  <path class="st0" d="M568.3,180.2c4.5,2.6,6.6,5.4,5.1,7.9-1.5,2.6-4.9,2.2-9.4-.4-4.5-2.6-6.6-5.4-5.1-8,1.5-2.6,4.9-2.2,9.4.4ZM569.7,177.8c-3.8-2.2-9.9-4.3-12.9.8-3,5.2,1.9,9.4,5.7,11.5,3.8,2.2,9.9,4.3,12.9-.8,3-5.2-1.9-9.4-5.7-11.5Z"/>
  <path class="st0" d="M576.6,165.9c4.5,2.6,6.6,5.3,5.1,7.9-1.5,2.6-4.9,2.2-9.4-.4-4.5-2.6-6.6-5.4-5.1-7.9,1.5-2.6,4.9-2.2,9.4.4ZM578,163.5c-3.8-2.2-9.9-4.3-12.9.8-3,5.2,1.9,9.4,5.7,11.5,3.8,2.2,9.9,4.3,12.9-.8,3-5.2-1.9-9.4-5.7-11.5Z"/>
  <path class="st0" d="M587.4,148.7c.3-.3.6-.7.9-1,1.3-1.5,1.9-3.6,0-5.2-1-.8-3-1.5-5,.8-2.4,2.8-.2,5,.8,6l-1.6,2c-2.3-2-4.4-5.3-.9-9.5,2.6-3.1,5.9-3.4,8.3-1.4,2,1.7,2,3.7,1.6,4.8h0c1.8-1.1,3.8-1.3,6,.5,2.6,2.2,3.7,6,.3,10-1,1.2-2.1,1.9-3.2,2.4-2.4,1-4.7,0-6.6-1.5l1.7-2.1c1.6,1.2,3.9,2.5,6.4-.5,1.7-2,1.7-4.5-.2-6-2.7-2.2-4.9,0-6.1,1.3-.2.3-.5.6-.7.9l-1.7-1.4Z"/>
  <path class="st0" d="M609.7,140.6l-1.8,2.1-11.4-9.5-3.1,3.7-1.6-1.3c2-2.7,2.6-4,.6-6.8l1.3-1.6,16,13.4Z"/>
  <path class="st0" d="M613.8,120c4,3.3,5.5,6.4,3.6,8.7-1.9,2.3-5.2,1.3-9.2-2-4-3.4-5.5-6.4-3.6-8.7,1.9-2.3,5.2-1.3,9.2,2ZM615.6,117.9c-3.3-2.8-9-6-12.8-1.4-3.9,4.6.3,9.6,3.6,12.3,3.3,2.8,9,6,12.8,1.4,3.9-4.6-.3-9.6-3.6-12.3Z"/>
  <path class="st0" d="M630.2,101.6c.3-.3.7-.6,1.1-.8,1.5-1.3,2.5-3.2.9-5.2-.8-1-2.7-2-5.1,0-2.8,2.4-1.1,4.8-.2,6l-2,1.6c-2-2.3-3.4-6,.8-9.5,3.1-2.6,6.4-2.4,8.5,0,1.7,2,1.3,4,.7,5h0c2-.8,4-.6,5.8,1.5,2.2,2.6,2.6,6.5-1.4,9.9-1.2,1-2.4,1.5-3.6,1.8-2.6.5-4.6-.9-6.3-2.6l2.1-1.7c1.3,1.4,3.4,3.2,6.4.7,2-1.7,2.4-4.2.9-6-2.3-2.7-4.8-.9-6.2.2-.3.2-.6.5-.9.8l-1.4-1.7Z"/>
  <path class="st0" d="M637.8,93.2c-4.4-5.2-1-8.9.7-10.3,2.8-2.3,6.5-2.4,9,.6,2.4,2.8,1.5,5.6.2,8.9l-.9,2.3c-1.2,3-.6,4.7-.2,5.4l8.7-7.3,1.6,1.9-10.9,9.2c-2.7-3.4-2.7-6.4-1.6-9.5l1.1-3c.9-2.4,1.6-4.1-.2-6.2-1.1-1.3-3.2-2.2-5.6-.2-3,2.5-.8,5.5,0,6.6l-2,1.7Z"/>
  <path class="st0" d="M661.2,77.9c3.4,4,4.3,7.3,2,9.2-2.3,1.9-5.4.4-8.7-3.6-3.4-4-4.3-7.3-2-9.2,2.3-1.9,5.4-.4,8.7,3.6ZM663.3,76.1c-2.8-3.3-7.8-7.4-12.4-3.6-4.6,3.8-1.4,9.5,1.4,12.8,2.8,3.3,7.8,7.4,12.4,3.6,4.6-3.8,1.4-9.5-1.4-12.8Z"/>
  <path class="st0" d="M677,64.7c.4-.2.8-.4,1.2-.6,1.7-1,3-2.7,1.7-4.9-.6-1.1-2.3-2.5-5-.9-3.2,1.9-1.9,4.6-1.3,5.9l-2.2,1.3c-1.5-2.6-2.3-6.5,2.4-9.2,3.5-2,6.7-1.2,8.3,1.5,1.3,2.3.6,4.2-.1,5h0c2.1-.4,4,.1,5.4,2.5,1.7,3,1.4,6.9-3.2,9.5-1.3.8-2.7,1.1-3.8,1.1-2.6.1-4.4-1.7-5.7-3.7l2.3-1.3c1.1,1.7,2.8,3.7,6.2,1.8,2.3-1.3,3.1-3.7,1.9-5.7-1.8-3-4.6-1.8-6.1-.9-.3.2-.7.4-1,.6l-1.1-1.9Z"/>
  <path class="st0" d="M691.3,56.4c.4-.2.8-.4,1.2-.6,1.8-1,3-2.7,1.7-4.9-.6-1.1-2.3-2.5-5-.9-3.2,1.9-1.9,4.6-1.3,5.9l-2.2,1.3c-1.5-2.6-2.3-6.5,2.4-9.3,3.5-2,6.7-1.2,8.3,1.5,1.3,2.3.6,4.2-.2,5h0c2.1-.4,4,.1,5.4,2.5,1.7,3,1.5,6.9-3.1,9.5-1.3.8-2.7,1.1-3.8,1.1-2.6.1-4.4-1.7-5.7-3.6l2.3-1.3c1.1,1.6,2.8,3.7,6.2,1.8,2.3-1.3,3.1-3.7,1.9-5.7-1.8-3-4.6-1.8-6.1-.9-.3.2-.7.4-1,.6l-1.1-2Z"/>
  <path class="st0" d="M711.6,46.7c2.6,4.5,3,7.9.4,9.4-2.6,1.5-5.4-.5-8-5.1-2.6-4.5-3-7.9-.4-9.4,2.6-1.5,5.3.5,8,5.1ZM714.1,45.3c-2.2-3.7-6.4-8.7-11.6-5.7-5.2,3-3,9.1-.8,12.8,2.2,3.7,6.4,8.7,11.6,5.7,5.2-3,3-9.1.8-12.8Z"/>
  <path class="st0" d="M729.4,37.3c.4-.1.9-.3,1.3-.4,1.9-.7,3.5-2.1,2.6-4.6-.4-1.2-1.8-2.8-4.8-1.8-3.5,1.3-2.7,4.2-2.3,5.6l-2.4.9c-1-2.9-1.2-6.8,4-8.7,3.8-1.4,6.8,0,7.9,2.9.9,2.5-.1,4.2-1,4.9h0c2.1,0,4,.8,4.9,3.4,1.2,3.2.2,7-4.8,8.9-1.5.5-2.8.6-3.9.5-2.6-.4-4-2.4-5-4.6l2.5-.9c.8,1.8,2.1,4.1,5.8,2.8,2.5-.9,3.7-3.1,2.9-5.3-1.2-3.3-4.2-2.5-5.9-1.9-.4.1-.7.3-1.1.4l-.8-2.1Z"/>
  <path class="st0" d="M746.2,26h0s3.2,8.9,3.2,8.9l-6.3,2.3,3-11.1ZM755.6,35.1l-.8-2.1-2.9,1-4.6-12.7-2,.7-4.5,15.7.9,2.4,8.6-3.1,1.7,4.8,2.5-.9-1.7-4.8,2.9-1Z"/>
  <path class="st0" d="M766.6,25.7c1.8,4.9,1.6,8.3-1.2,9.3-2.8,1-5.2-1.5-7-6.4-1.8-4.9-1.6-8.3,1.2-9.3,2.8-1,5.2,1.5,7,6.4ZM769.2,24.7c-1.5-4.1-4.7-9.6-10.4-7.6-5.6,2-4.5,8.4-3.1,12.5,1.5,4.1,4.8,9.6,10.4,7.6,5.6-2,4.5-8.4,3.1-12.5Z"/>
  <path class="st0" d="M788.5,17.8c.4,0,.9,0,1.4-.2,2-.3,3.8-1.5,3.3-4-.2-1.2-1.3-3.1-4.4-2.6-3.6.6-3.4,3.7-3.2,5.1l-2.5.4c-.5-3,0-6.9,5.4-7.9,4-.7,6.8,1.2,7.3,4.3.5,2.6-.8,4.1-1.9,4.7h0c2.1.4,3.8,1.5,4.3,4.2.6,3.4-1,7-6.2,7.9-1.5.3-2.9.1-4-.2-2.5-.8-3.5-3-4.1-5.4l2.7-.5c.4,1.9,1.4,4.4,5.2,3.8,2.6-.5,4.2-2.4,3.8-4.8-.6-3.4-3.7-3.2-5.5-2.9-.4,0-.8.2-1.2.2l-.4-2.2Z"/>
  <path class="st0" d="M802.4,15.1c.8-.8,1.9-1.7,3.8-2,3.3-.6,7.2,1.1,7.9,5.4.4,2.3.3,7.4-6.2,8.5-2.7.5-6.3,0-7.6-4.5l2.7-.5c.7,2.3,2.7,3.1,5,2.7,2.7-.5,4-2.9,3.5-5.5-.5-2.9-2.8-4.2-5.4-3.7-1.5.3-2.7,1.2-3.5,2.6l-2.2.3-.4-11.3,10.6-1.9.4,2.5-8.7,1.5v5.8Z"/>
  <path class="st0" d="M827.2,12.7c.9,5.1.1,8.5-2.8,9-3,.5-4.8-2.3-5.7-7.5-.9-5.1-.1-8.5,2.8-9,3-.5,4.8,2.3,5.8,7.5ZM829.9,12.2c-.8-4.3-3-10.3-8.9-9.3-5.9,1-5.9,7.5-5.2,11.8.7,4.3,3,10.3,8.9,9.3,5.9-1,5.9-7.5,5.2-11.8Z"/>
  <path class="st0" d="M866.7,28.1h-2.1v22.3h1.1c.3,0,1,0,1,0v-.5s0-21.8,0-21.8h0ZM865.6,49.9h0s0,0,.1,0h0s-.2,0-.2,0Z"/>
  <path class="st0" d="M864.6,661.5v22.2h2.1v-22.2h-.8s-1.4,0-1.4,0ZM865.8,662h0s0,0,0,0h-.1s.2,0,.2,0Z"/>
  <path class="st0" d="M559.2,355.9c0-.3,0-1.1,0-1.1h-.5s-21.9,0-21.9,0v2.1h22.3v-1ZM558.8,356h0v-.2h0v.2Z"/>
  <path class="st0" d="M1194,354.9h-21.8v1.1c0,.3,0,1,0,1h22.3v-2.1h-.5ZM1172.7,355.8h0c0,0,0,0,0,.1h0c0,0,0-.1,0-.1Z"/>
  <polygon class="st0" points="564 301.8 542.1 297.9 542 298.4 541.7 300 563.7 303.9 564 301.8"/>
  <polygon class="st0" points="1167.7 408.4 1167.4 410 1167.9 410.1 1189.3 413.9 1189.6 411.8 1167.7 408 1167.7 408.4"/>
  <polygon class="st0" points="1154 459.9 1153.4 461.5 1174.3 469 1175 467 1154.1 459.5 1154 459.9"/>
  <polygon class="st0" points="578 250.4 577.6 250.2 557.1 242.8 556.9 243.3 556.4 244.8 577.3 252.4 578 250.4"/>
  <polygon class="st0" points="1131.5 508.2 1130.6 509.6 1131 509.9 1149.9 520.7 1150.9 518.9 1131.7 507.8 1131.5 508.2"/>
  <polygon class="st0" points="600.8 202.2 581.5 191.1 581.3 191.5 580.4 192.9 599.7 204 600.8 202.2"/>
  <polygon class="st0" points="631.6 158.7 614.5 144.4 614.2 144.8 613.2 146 630.3 160.3 631.6 158.7"/>
  <polygon class="st0" points="1100.8 551.9 1099.8 553.1 1116.8 567.4 1118.2 565.8 1101.2 551.5 1100.8 551.9"/>
  <polygon class="st0" points="669.5 121.2 655.2 104.1 654.8 104.4 653.6 105.5 667.9 122.6 669.5 121.2"/>
  <polygon class="st0" points="1063.1 589.6 1061.9 590.7 1076.2 607.7 1077.8 606.3 1063.5 589.3 1063.1 589.6"/>
  <polygon class="st0" points="713.4 90.8 702.2 71.5 701.8 71.8 700.4 72.6 711.5 91.8 713.4 90.8"/>
  <polygon class="st0" points="1019.5 620.3 1018.1 621.1 1029.1 640.3 1031 639.2 1019.9 620.1 1019.5 620.3"/>
  <polygon class="st0" points="971.1 643 969.5 643.5 977.1 664.3 979.1 663.6 971.5 642.8 971.1 643"/>
  <polygon class="st0" points="761.9 68.4 761.7 68 754.2 47.5 753.8 47.7 752.3 48.3 759.9 69.1 761.9 68.4"/>
  <polygon class="st0" points="809.2 33 807.6 33.3 811.4 55.2 813.5 54.8 809.6 32.9 809.2 33"/>
  <polygon class="st0" points="919.5 656.8 917.9 657.1 921.7 678.9 923.8 678.5 920 656.7 919.5 656.8"/>
  <polygon class="st0" points="923.8 33.3 921.7 32.9 921.6 33.4 917.9 54.8 919.9 55.2 923.8 33.3"/>
  <polygon class="st0" points="811.3 657.2 807.6 678.5 809.6 678.9 813.5 657.1 811.4 656.7 811.3 657.2"/>
  <polygon class="st0" points="759.8 642.8 759.7 643.2 752.3 663.6 754.2 664.3 761.8 643.5 759.8 642.8"/>
  <polygon class="st0" points="971.5 69.1 971.7 68.6 979.1 48.3 977.1 47.5 977 48 969.5 68.4 971.5 69.1"/>
  <polygon class="st0" points="711.5 620 711.3 620.5 700.4 639.2 702.2 640.3 713.3 621.1 711.5 620"/>
  <polygon class="st0" points="1019.8 91.8 1020.1 91.4 1031 72.6 1029.1 71.5 1028.9 71.9 1018 90.7 1019.8 91.8"/>
  <polygon class="st0" points="667.9 589.3 667.6 589.7 653.6 606.3 655.2 607.7 669.5 590.6 667.9 589.3"/>
  <polygon class="st0" points="1063.5 122.5 1077.8 105.5 1076.2 104.1 1075.9 104.5 1061.9 121.2 1063.5 122.5"/>
  <polygon class="st0" points="630.2 551.5 629.9 551.8 613.2 565.8 614.5 567.4 631.6 553.1 630.2 551.5"/>
  <polygon class="st0" points="1101.1 160.3 1118.2 146 1116.8 144.4 1116.5 144.7 1099.8 158.7 1101.1 160.3"/>
  <polygon class="st0" points="1131.7 204 1150.9 192.9 1149.9 191.1 1149.5 191.4 1130.6 202.2 1131.7 204"/>
  <polygon class="st0" points="599.7 507.8 599.3 508 580.4 518.9 581.5 520.7 600.8 509.6 599.7 507.8"/>
  <polygon class="st0" points="1154.1 252.4 1175 244.8 1174.3 242.8 1173.8 243 1153.4 250.4 1154.1 252.4"/>
  <polygon class="st0" points="577.3 459.4 576.8 459.6 556.4 467 557.1 469 578 461.4 577.3 459.4"/>
  <polygon class="st0" points="1167.7 303.9 1189.6 300 1189.3 297.9 1188.8 298 1167.4 301.8 1167.7 303.9"/>
  <polygon class="st0" points="563.7 407.9 563.2 408 541.7 411.8 542.1 413.9 564 410 563.7 407.9"/>
  <polygon class="st0" points="860.7 40.5 859.1 40.6 859.3 50.5 861.4 50.4 861.2 40.5 860.7 40.5"/>
  <polygon class="st0" points="871.6 661.4 870 661.4 870.1 671.3 872.3 671.3 872.1 661.4 871.6 661.4"/>
  <polygon class="st0" points="549.3 360.4 549.4 362.5 559.3 362.3 559.3 360.2 558.8 360.2 549.3 360.4"/>
  <polygon class="st0" points="1182 349.4 1181.5 349.4 1172.1 349.5 1172.1 351.6 1182 351.5 1182 349.4"/>
  <polygon class="st0" points="1178.3 404.2 1168.6 402.7 1168.5 403.2 1168.3 404.8 1178 406.3 1178.3 404.2"/>
  <polygon class="st0" points="553.4 305.5 553.3 306 553 307.6 562.8 309.2 563.2 307.1 553.4 305.5"/>
  <polygon class="st0" points="1165.2 457.6 1155.9 454.4 1155.7 454.9 1155.2 456.4 1164.5 459.6 1165.2 457.6"/>
  <polygon class="st0" points="566.9 252.2 566.7 252.7 566.2 254.2 575.5 257.4 576.2 255.4 566.9 252.2"/>
  <polygon class="st0" points="1142.9 507.9 1134.3 503.2 1134.1 503.6 1133.3 505 1141.9 509.8 1142.9 507.9"/>
  <polygon class="st0" points="589.5 202.1 589.3 202.5 588.5 203.9 597.1 208.7 598.2 206.9 589.5 202.1"/>
  <polygon class="st0" points="620.5 156.6 620.2 157 619.2 158.2 626.9 164.5 628.2 162.8 620.5 156.6"/>
  <polygon class="st0" points="1112.2 553.6 1104.5 547.4 1104.1 548 1103.2 549 1110.9 555.2 1112.2 553.6"/>
  <polygon class="st0" points="1072.4 594.7 1074 593.3 1067.6 585.8 1067.2 586.2 1066 587.2 1066.3 587.6 1072.4 594.7"/>
  <polygon class="st0" points="658.9 117.2 658.6 117.5 657.3 118.6 663.9 126 665.4 124.6 658.9 117.2"/>
  <polygon class="st0" points="1029.5 625.7 1024.5 617.4 1024.1 617.6 1023 618.2 1022.9 618.8 1027.7 626.8 1029.5 625.7"/>
  <polygon class="st0" points="703.6 85 703.2 85.2 701.8 86.1 706.9 94.6 708.8 93.5 703.6 85"/>
  <polygon class="st0" points="756.7 70.3 756.7 69.8 753.3 61.1 752.8 61.2 751.3 61.8 754.9 71 756.7 70.3"/>
  <polygon class="st0" points="976.1 641.1 974.6 641.6 978.1 650.8 980 650 976.5 640.9 976.1 641.1"/>
  <polygon class="st0" points="924.7 655.8 923.1 656.1 925 665.7 927.1 665.3 925.2 655.7 924.7 655.8"/>
  <polygon class="st0" points="808.2 55.8 806.4 46.1 805.9 46.2 804.3 46.5 806.2 56.2 808.2 55.8"/>
  <polygon class="st0" points="914.1 44.7 912.6 54 914.7 54.3 916.2 44.5 914.1 44.2 914.1 44.7"/>
  <polygon class="st0" points="816.6 658.1 815.2 667.3 817.2 667.6 818.8 657.9 816.7 657.6 816.6 658.1"/>
  <polygon class="st0" points="764.7 645 761.7 653.8 763.7 654.5 766.9 645.3 765.2 644.6 764.7 645"/>
  <polygon class="st0" points="969.7 58 967.7 57.3 967.5 57.8 964.5 66.6 966.5 67.3 969.7 58"/>
  <polygon class="st0" points="1015.2 89.2 1020 80.5 1018.1 79.5 1017.9 79.9 1013.3 88.1 1015.2 89.2"/>
  <polygon class="st0" points="716.2 622.7 715.9 623.1 711.4 631.3 713.2 632.3 718 623.7 716.2 622.7"/>
  <polygon class="st0" points="672 592.7 671.7 593.1 665.8 600.4 667.4 601.7 673.6 594 672 592.7"/>
  <polygon class="st0" points="1059.4 119.1 1065.6 111.4 1064 110.1 1063.7 110.5 1057.7 117.8 1059.4 119.1"/>
  <polygon class="st0" points="633.7 555.6 633.3 555.9 626.2 562.1 627.6 563.6 635.1 557.2 633.7 555.6"/>
  <polygon class="st0" points="1097.7 156.2 1105.1 149.8 1103.8 148.2 1103.4 148.5 1096.3 154.7 1097.7 156.2"/>
  <polygon class="st0" points="602.4 512.4 602 512.6 594 517.5 595 519.3 603.5 514.2 602.4 512.4"/>
  <polygon class="st0" points="1128.9 199.4 1137.4 194.4 1136.3 192.5 1135.9 192.8 1127.9 197.6 1128.9 199.4"/>
  <polygon class="st0" points="1152.2 247.4 1161.4 243.8 1160.7 241.9 1160.2 242.1 1151.5 245.4 1152.2 247.4"/>
  <polygon class="st0" points="579.2 464.4 578.7 464.6 569.9 468 570.7 469.9 579.9 466.4 579.2 464.4"/>
  <polygon class="st0" points="564.7 413.5 564.2 413.3 555.4 415 554.9 415.1 555.3 417.1 565 415.2 564.7 413.5"/>
  <polygon class="st0" points="1166.7 298.3 1167.2 298.5 1176.4 296.8 1176 294.7 1175.6 294.8 1166.4 296.6 1166.7 298.3"/>
  <polygon class="st0" points="856 50.6 855.7 40.6 855.2 40.7 853.6 40.7 853.9 50.6 856 50.6"/>
  <polygon class="st0" points="877 661.3 875.3 661.3 875.7 671.2 877.8 671.1 877.4 661.2 877 661.3"/>
  <polygon class="st0" points="1172 346.3 1181.9 346 1181.8 343.8 1181.3 343.9 1171.9 344.2 1172 346.3"/>
  <polygon class="st0" points="559.5 367.6 559.4 365.5 558.9 365.5 549.5 365.9 549.5 368 559.5 367.6"/>
  <polygon class="st0" points="562.4 312.4 552.5 311 552.5 311.4 552.2 313.1 562.1 314.4 562.4 312.4"/>
  <polygon class="st0" points="1179.1 398.8 1169.4 397.4 1169.3 397.9 1169.1 399.5 1178.8 400.9 1179.1 398.8"/>
  <polygon class="st0" points="1166.9 452.4 1157.6 449.4 1157.4 449.8 1156.9 451.4 1166.2 454.4 1166.9 452.4"/>
  <polygon class="st0" points="574.5 260.5 565.1 257.4 565 257.9 564.5 259.4 573.9 262.5 574.5 260.5"/>
  <polygon class="st0" points="595.6 211.5 586.8 206.9 586.6 207.3 585.8 208.8 594.6 213.4 595.6 211.5"/>
  <polygon class="st0" points="1145.5 503.1 1136.8 498.5 1136.6 498.9 1135.9 500.3 1144.5 504.9 1145.5 503.1"/>
  <polygon class="st0" points="624.9 167 617 160.9 616.7 161.3 615.7 162.5 623.6 168.7 624.9 167"/>
  <polygon class="st0" points="1115.6 549.3 1107.9 543.2 1107.6 543.6 1106.6 544.9 1106.9 545.2 1114.3 550.9 1115.6 549.3"/>
  <polygon class="st0" points="661.4 128.2 654.8 120.8 654.4 121.1 653.2 122.2 659.9 129.6 661.4 128.2"/>
  <polygon class="st0" points="1071.2 582.6 1070 583.7 1076.6 591 1078.2 589.6 1071.6 582.3 1071.2 582.6"/>
  <polygon class="st0" points="704.2 96.3 698.9 87.9 698.5 88.1 697.1 89 702.4 97.4 704.2 96.3"/>
  <polygon class="st0" points="1028.6 614.8 1027.2 615.7 1032.4 624 1034.2 622.8 1029 614.5 1028.6 614.8"/>
  <polygon class="st0" points="981.1 639.1 979.5 639.7 983.2 648.8 985.2 648 981.5 638.9 981.1 639.1"/>
  <polygon class="st0" points="751.8 72.2 748.1 63.1 747.7 63.2 746.2 63.8 749.9 73 751.8 72.2"/>
  <polygon class="st0" points="930 654.7 928.4 655.1 930.4 664.7 932.5 664.2 930.4 654.6 930 654.7"/>
  <polygon class="st0" points="800.5 47.3 798.9 47.6 800.9 57.3 803 56.8 800.9 47.2 800.5 47.3"/>
  <polygon class="st0" points="821.9 658.9 820.6 668.1 822.7 668.4 824.1 658.7 822 658.4 821.9 658.9"/>
  <polygon class="st0" points="908.6 43.9 907.3 53.2 909.4 53.5 910.8 43.7 908.7 43.4 908.6 43.9"/>
  <polygon class="st0" points="962.3 56.1 959.4 65 961.4 65.6 964.5 56.3 962.4 55.6 962.3 56.1"/>
  <polygon class="st0" points="769.8 646.7 766.9 655.6 768.9 656.2 772 646.9 770 646.3 769.8 646.7"/>
  <polygon class="st0" points="721 625.3 720.6 625.7 716.2 633.9 718.1 634.9 722.7 626.2 721 625.3"/>
  <polygon class="st0" points="1010.5 86.6 1015.1 77.9 1013.3 76.9 1013 77.3 1008.6 85.6 1010.5 86.6"/>
  <polygon class="st0" points="676.2 596.1 675.9 596.4 670.1 603.8 671.7 605.1 677.8 597.3 676.2 596.1"/>
  <polygon class="st0" points="1055.2 115.8 1061.3 108 1059.6 106.7 1059.3 107.1 1053.5 114.5 1055.2 115.8"/>
  <polygon class="st0" points="1094.1 152.3 1101.5 145.6 1100.1 144.1 1099.7 144.4 1092.7 150.7 1094.1 152.3"/>
  <polygon class="st0" points="637.2 559.6 636.9 559.9 629.9 566.2 631.3 567.8 638.6 561.1 637.2 559.6"/>
  <polygon class="st0" points="605.2 516.9 604.8 517.2 596.8 522.2 598 524 606.3 518.7 605.2 516.9"/>
  <polygon class="st0" points="1126.2 194.9 1134.5 189.7 1133.4 187.9 1133 188.1 1125 193.1 1126.2 194.9"/>
  <polygon class="st0" points="1150.3 242.4 1159.4 238.7 1158.6 236.8 1158.2 237 1149.5 240.4 1150.3 242.4"/>
  <polygon class="st0" points="581.1 469.4 580.7 469.6 572 473.1 572.7 475 581.9 471.4 581.1 469.4"/>
  <polygon class="st0" points="1174.4 289.4 1165.3 291.3 1165.7 293.4 1175.4 291.4 1174.9 289.3 1174.4 289.4"/>
  <polygon class="st0" points="566.1 420.5 565.7 418.4 565.2 418.5 556 420.5 556.5 422.5 566.1 420.5"/>
  <polygon class="st0" points="850.7 50.8 850.7 50.3 850.2 40.9 849.7 40.9 848.1 41 848.6 50.9 850.7 50.8"/>
  <polygon class="st0" points="882.3 661 880.7 661.1 881.2 671 883.3 670.8 882.8 661 882.3 661"/>
  <polygon class="st0" points="559.7 373 559.6 370.9 559.1 370.9 549.7 371.4 549.8 373.5 559.7 373"/>
  <polygon class="st0" points="1181.1 338.4 1171.7 338.9 1171.8 341 1181.7 340.5 1181.6 338.4 1181.1 338.4"/>
  <polygon class="st0" points="551.7 316.9 551.5 318.5 561.4 319.7 561.6 317.6 551.8 316.4 551.7 316.9"/>
  <polygon class="st0" points="1179.8 393.3 1170 392.1 1170 392.6 1169.8 394.2 1179.6 395.4 1179.8 393.3"/>
  <polygon class="st0" points="1168.5 447.1 1159.2 444.3 1159 444.7 1158.6 446.3 1167.9 449.1 1168.5 447.1"/>
  <polygon class="st0" points="563.3 263.1 562.8 264.7 572.3 267.6 572.9 265.6 563.4 262.7 563.3 263.1"/>
  <polygon class="st0" points="584.1 212.2 583.3 213.7 592.1 218.1 593.1 216.2 584.3 211.8 584.1 212.2"/>
  <polygon class="st0" points="1148 498.2 1139.3 493.7 1139.1 494.2 1138.4 495.6 1138.8 495.8 1147.1 500 1148 498.2"/>
  <polygon class="st0" points="1110.8 539.4 1109.8 540.7 1117.7 546.6 1119 544.9 1111.1 539 1110.8 539.4"/>
  <polygon class="st0" points="621.6 171.2 613.7 165.2 613.4 165.6 612.4 166.9 620.3 172.9 621.6 171.2"/>
  <polygon class="st0" points="1075.1 579 1073.9 580.1 1080.7 587.3 1082.2 585.9 1075.5 578.7 1075.1 579"/>
  <polygon class="st0" points="657.5 131.8 650.7 124.5 650.3 124.8 649.1 125.9 655.9 133.2 657.5 131.8"/>
  <polygon class="st0" points="1033.1 611.9 1031.8 612.8 1032 613.2 1037.1 621 1038.9 619.9 1033.5 611.6 1033.1 611.9"/>
  <polygon class="st0" points="699.7 99.1 694.3 90.8 693.9 91.1 692.5 91.9 697.9 100.3 699.7 99.1"/>
  <polygon class="st0" points="986 637.1 984.5 637.7 984.7 638.1 988.3 646.7 990.3 645.9 986.4 636.9 986 637.1"/>
  <polygon class="st0" points="746.9 74.2 746.7 73.8 743 65.2 742.6 65.3 741.1 66 745 75 746.9 74.2"/>
  <polygon class="st0" points="797.4 58 797.7 57.5 795.5 48.3 795.1 48.4 793.5 48.8 795.7 58.4 797.4 58"/>
  <polygon class="st0" points="935.2 653.6 933.6 654 935.8 663.5 937.9 663 935.7 653.5 935.2 653.6"/>
  <polygon class="st0" points="903.1 43.2 902 52.5 904.1 52.8 905.3 43 903.2 42.7 903.1 43.2"/>
  <polygon class="st0" points="827.2 659.6 826.1 668.9 828.2 669.1 829.4 659.4 827.3 659.1 827.2 659.6"/>
  <polygon class="st0" points="957 54.4 954.3 63.4 956.3 64 959.2 54.6 957.2 54 957 54.4"/>
  <polygon class="st0" points="774.9 648.4 772.2 657.3 774.2 657.9 777.1 648.5 775 647.9 774.9 648.4"/>
  <polygon class="st0" points="725.6 627.8 725.4 628.2 721.1 636.5 723 637.4 727.5 628.7 725.6 627.8"/>
  <polygon class="st0" points="1005.8 84.1 1010.2 75.3 1008.4 74.4 1008.2 74.8 1003.9 83.2 1005.8 84.1"/>
  <polygon class="st0" points="1051 112.5 1056.9 104.6 1055.2 103.4 1054.9 103.7 1049.3 111.3 1051 112.5"/>
  <polygon class="st0" points="680.4 599.3 680.1 599.7 674.4 607.2 676.1 608.5 682.1 600.6 680.4 599.3"/>
  <polygon class="st0" points="640.8 563.5 640.5 563.8 633.6 570.3 635 571.8 642.3 565 640.8 563.5"/>
  <polygon class="st0" points="1090.5 148.3 1097.8 141.6 1096.3 140 1096 140.4 1089.1 146.8 1090.5 148.3"/>
  <polygon class="st0" points="1123.3 190.4 1131.6 185 1130.4 183.2 1130 183.5 1122.1 188.6 1123.3 190.4"/>
  <polygon class="st0" points="608.1 521.4 607.7 521.7 599.8 526.8 600.9 528.6 609.2 523.2 608.1 521.4"/>
  <polygon class="st0" points="583.1 474.4 582.7 474.5 574 478.2 574.9 480.1 584 476.3 583.1 474.4"/>
  <polygon class="st0" points="1148.3 237.5 1148.7 237.3 1157.3 233.6 1156.5 231.7 1156 231.9 1147.4 235.5 1148.3 237.5"/>
  <polygon class="st0" points="557.7 427.9 567.3 425.7 566.8 423.6 566.3 423.7 557.2 425.8 557.7 427.9"/>
  <polygon class="st0" points="1174.2 286 1173.7 283.9 1173.2 284 1164.1 286.1 1164.6 288.2 1174.2 286"/>
  <polygon class="st0" points="844.2 41.2 842.6 41.3 843.2 51.2 845.4 51.1 844.7 41.2 844.2 41.2"/>
  <polygon class="st0" points="887.6 660.7 886 660.8 886.7 670.6 888.8 670.5 888.1 660.7 887.6 660.7"/>
  <polygon class="st0" points="560.1 378.3 559.9 376.2 559.5 376.2 550 376.9 550.2 379 560.1 378.3"/>
  <polygon class="st0" points="1180.7 332.9 1171.3 333.5 1171.5 335.6 1181.4 335 1181.2 332.9 1180.7 332.9"/>
  <polygon class="st0" points="1180.4 387.8 1170.6 386.8 1170.6 387.3 1170.4 388.9 1180.2 389.9 1180.4 387.8"/>
  <polygon class="st0" points="551.1 322.4 550.9 324 560.8 325 561 322.9 551.2 321.9 551.1 322.4"/>
  <polygon class="st0" points="1170.1 441.8 1160.7 439.2 1160.5 439.6 1160.1 441.2 1169.5 443.9 1170.1 441.8"/>
  <polygon class="st0" points="561.7 268.4 561.3 270 570.8 272.7 571.4 270.7 561.9 268 561.7 268.4"/>
  <polygon class="st0" points="581.6 217.1 580.9 218.6 589.8 222.9 590.7 221 581.8 216.7 581.6 217.1"/>
  <polygon class="st0" points="1150.5 493.2 1141.7 489 1141.5 489.4 1140.7 490.8 1149.6 495.1 1150.5 493.2"/>
  <polygon class="st0" points="618.2 175.8 618 175.2 610.4 169.7 610.1 170 609.1 171.4 617.2 177.2 618.2 175.8"/>
  <polygon class="st0" points="1114 535.1 1113.2 536.1 1113.4 536.7 1121 542.2 1122.2 540.5 1114.3 534.7 1114 535.1"/>
  <polygon class="st0" points="1079 575.3 1077.8 576.5 1084.7 583.5 1086.2 582.1 1079.3 575 1079 575.3"/>
  <polygon class="st0" points="653.6 135.4 646.7 128.3 646.3 128.6 645.2 129.7 652.1 136.9 653.6 135.4"/>
  <polygon class="st0" points="695.2 102 689.6 93.8 689.3 94.1 687.9 95 693.4 103.2 695.2 102"/>
  <polygon class="st0" points="1037.6 609 1036.2 609.9 1041.7 618 1043.5 616.8 1038 608.7 1037.6 609"/>
  <polygon class="st0" points="742 76.3 738 67.3 737.5 67.5 736 68.2 740.1 77.2 742 76.3"/>
  <polygon class="st0" points="990.9 634.9 989.4 635.6 993.4 644.5 995.3 643.6 991.3 634.7 990.9 634.9"/>
  <polygon class="st0" points="940.4 652.3 938.8 652.7 941.2 662.2 943.2 661.7 940.9 652.2 940.4 652.3"/>
  <polygon class="st0" points="792.4 59.2 792.4 58.7 790.2 49.6 789.7 49.7 788.1 50.1 790.5 59.7 792.4 59.2"/>
  <polygon class="st0" points="897.7 42.6 896.7 51.9 898.8 52.2 899.8 42.3 897.7 42.1 897.7 42.6"/>
  <polygon class="st0" points="832.5 660.2 831.6 669.5 833.7 669.7 834.7 660 832.6 659.7 832.5 660.2"/>
  <polygon class="st0" points="780 649.9 777.5 658.8 779.5 659.4 782.2 650 780.2 649.4 780 649.9"/>
  <polygon class="st0" points="951.7 52.9 949.2 61.8 951.2 62.5 951.3 62 953.9 53 951.9 52.4 951.7 52.9"/>
  <polygon class="st0" points="1001 81.7 1005.3 72.9 1003.4 71.9 1003.2 72.4 999.1 80.8 1001 81.7"/>
  <polygon class="st0" points="730.4 630.1 730.1 630.6 726 638.9 727.9 639.9 732.3 631.1 730.4 630.1"/>
  <polygon class="st0" points="1046.7 109.4 1052.5 101.3 1050.8 100.1 1050.5 100.5 1045 108.1 1046.7 109.4"/>
  <polygon class="st0" points="684.7 602.5 684.4 602.9 678.9 610.5 680.6 611.7 686.4 603.7 684.7 602.5"/>
  <polygon class="st0" points="1086.9 144.4 1094 137.6 1092.5 136 1092.2 136.4 1085.4 142.9 1086.9 144.4"/>
  <polygon class="st0" points="644.5 567.4 644.2 567.7 637.4 574.3 638.8 575.8 646 568.9 644.5 567.4"/>
  <polygon class="st0" points="1120.4 185.9 1128.5 180.4 1127.4 178.6 1127 178.9 1119.2 184.2 1120.4 185.9"/>
  <polygon class="st0" points="611 525.9 610.6 526.2 602.8 531.4 604 533.2 612.2 527.7 611 525.9"/>
  <polygon class="st0" points="585.2 479.2 584.8 479.4 576.2 483.3 577.1 485.2 586.1 481.2 585.2 479.2"/>
  <polygon class="st0" points="1146.1 232.6 1155.1 228.6 1154.3 226.6 1153.8 226.8 1145.3 230.6 1146.1 232.6"/>
  <polygon class="st0" points="1171.9 278.7 1162.9 281 1163.4 283 1172.9 280.6 1172.4 278.6 1171.9 278.7"/>
  <polygon class="st0" points="568.5 430.9 568 428.8 567.6 428.9 558.5 431.2 559 433.2 568.5 430.9"/>
  <polygon class="st0" points="838.7 41.6 837.1 41.8 837.9 51.7 840 51.5 839.2 41.6 838.7 41.6"/>
  <polygon class="st0" points="893 660.3 891.3 660.4 892.2 670.2 894.3 670 893.4 660.2 893 660.3"/>
  <polygon class="st0" points="560.5 383.6 560.3 381.5 559.9 381.5 550.4 382.4 550.6 384.4 560.5 383.6"/>
  <polygon class="st0" points="1180.3 327.4 1170.9 328.2 1171.1 330.3 1180.9 329.5 1180.8 327.4 1180.3 327.4"/>
  <polygon class="st0" points="550.6 327.8 550.4 329.5 560.3 330.3 560.5 328.2 550.6 327.4 550.6 327.8"/>
  <polygon class="st0" points="1180.9 382.4 1171.1 381.5 1171.1 382 1170.9 383.6 1180.8 384.5 1180.9 382.4"/>
  <polygon class="st0" points="560.2 273.7 559.8 275.3 569.4 277.8 569.9 275.8 560.4 273.3 560.2 273.7"/>
  <polygon class="st0" points="1171.5 436.5 1162.1 434 1161.9 434.5 1161.6 435.7 1162 436.2 1171 438.6 1171.5 436.5"/>
  <polygon class="st0" points="588.4 225.8 579.4 221.7 579.2 222.1 578.5 223.6 587.5 227.7 588.4 225.8"/>
  <polygon class="st0" points="1143.8 484.6 1143.1 486 1152 490.2 1152.9 488.3 1144 484.1 1143.8 484.6"/>
  <polygon class="st0" points="1117.1 530.7 1116.2 532.1 1124.2 537.7 1125.4 536 1117.4 530.3 1117.1 530.7"/>
  <polygon class="st0" points="615.3 179.8 607.1 174.1 606.9 174.5 605.9 175.9 614.1 181.5 615.3 179.8"/>
  <polygon class="st0" points="649.8 139.1 642.7 132.1 642.4 132.5 641.2 133.6 648.3 140.6 649.8 139.1"/>
  <polygon class="st0" points="1082.6 571.9 1081.7 572.7 1088.6 579.7 1090.1 578.2 1083.2 571.3 1082.6 571.9"/>
  <polygon class="st0" points="690.8 105.1 685.1 96.9 684.7 97.2 683.4 98.1 689.1 106.3 690.8 105.1"/>
  <polygon class="st0" points="1042 605.9 1040.6 606.8 1046.3 614.9 1048 613.7 1042.4 605.6 1042 605.9"/>
  <polygon class="st0" points="995.8 632.7 994.3 633.4 998.4 642.2 1000.3 641.3 996.2 632.5 995.8 632.7"/>
  <polygon class="st0" points="736.9 78.6 736.9 78.1 732.9 69.6 732.5 69.8 731 70.5 735.2 79.4 736.9 78.6"/>
  <polygon class="st0" points="945.6 651 944 651.4 946.5 660.9 948.6 660.3 946 650.9 945.6 651"/>
  <polygon class="st0" points="787.1 60.6 787.3 60 784.8 51 784.4 51.1 782.8 51.5 785.3 61 787.1 60.6"/>
  <polygon class="st0" points="837.9 660.7 837.1 670 839.2 670.2 840 660.4 837.9 660.2 837.9 660.7"/>
  <polygon class="st0" points="892.2 42.1 891.3 51.5 893.4 51.7 894.3 41.8 892.2 41.6 892.2 42.1"/>
  <polygon class="st0" points="948.6 51.5 946.5 51 946.4 51.4 944 60.5 946 61 948.6 51.5"/>
  <polygon class="st0" points="785.2 651.3 782.8 660.3 784.8 660.9 787.4 651.4 785.3 650.9 785.2 651.3"/>
  <polygon class="st0" points="996.2 79.4 1000.3 70.5 998.4 69.6 998.2 70 994.3 78.5 996.2 79.4"/>
  <polygon class="st0" points="735.2 632.5 735 632.9 731 641.3 732.9 642.2 737.1 633.3 735.2 632.5"/>
  <polygon class="st0" points="689 605.6 688.7 606 683.4 613.7 685.1 614.9 690.8 606.8 689 605.6"/>
  <polygon class="st0" points="1042.3 106.2 1048 98.1 1046.3 96.9 1046 97.3 1040.6 105 1042.3 106.2"/>
  <polygon class="st0" points="648.2 571.2 647.9 571.6 641.2 578.2 642.7 579.7 649.7 572.7 648.2 571.2"/>
  <polygon class="st0" points="1083.1 140.6 1090.1 133.6 1088.6 132.1 1088.3 132.5 1081.6 139.1 1083.1 140.6"/>
  <polygon class="st0" points="1117.3 181.5 1125.4 175.8 1124.2 174.1 1123.8 174.4 1116.1 179.8 1117.3 181.5"/>
  <polygon class="st0" points="614 530.3 613.6 530.6 605.9 536 607.1 537.7 615.2 532 614 530.3"/>
  <polygon class="st0" points="1143.8 227.4 1144.4 227.5 1152.9 223.6 1152 221.7 1151.5 221.9 1143 225.8 1143.8 227.4"/>
  <polygon class="st0" points="587.5 484.2 587 484.3 578.5 488.3 579.4 490.2 588.3 486 587.5 484.2"/>
  <polygon class="st0" points="569.9 436 569.4 434 568.9 434.1 559.8 436.5 560.4 438.6 569.9 436"/>
  <polygon class="st0" points="1170.5 273.4 1161.5 275.8 1162 277.8 1171.5 275.3 1171 273.3 1170.5 273.4"/>
  <polygon class="st0" points="833.7 42.1 833.2 42.2 831.6 42.3 832.6 52.2 834.7 51.9 834.7 51.5 833.7 42.1"/>
  <polygon class="st0" points="898.3 659.8 896.7 660 896.7 660.4 897.7 669.7 899.8 669.5 898.8 659.7 898.3 659.8"/>
  <polygon class="st0" points="1179.7 321.9 1170.4 322.9 1170.6 325 1171.1 325 1180.4 324 1180.2 321.9 1179.7 321.9"/>
  <polygon class="st0" points="561 388.9 560.8 386.8 560.3 386.9 550.9 387.8 551.2 389.9 561 388.9"/>
  <polygon class="st0" points="550.1 333.3 550 335 559.9 335.7 560.1 333.6 550.2 332.9 550.1 333.3"/>
  <polygon class="st0" points="1181.3 376.9 1171.5 376.2 1171.5 376.7 1171.4 378.3 1181.2 379 1181.3 376.9"/>
  <polygon class="st0" points="558.8 279 558.5 280.6 568.1 283 568.6 281 559 278.6 558.8 279"/>
  <polygon class="st0" points="1172.9 431.2 1163.4 428.8 1163.3 429.3 1162.9 430.9 1172.4 433.2 1172.9 431.2"/>
  <polygon class="st0" points="586.1 230.7 577.1 226.6 576.9 227.1 576.2 228.6 585.3 232.6 586.1 230.7"/>
  <polygon class="st0" points="1146 479.7 1145.3 481.2 1154.3 485.2 1155.1 483.3 1146.2 479.3 1146 479.7"/>
  <polygon class="st0" points="612.2 184.2 604 178.7 603.7 179.1 602.8 180.4 611 185.9 612.2 184.2"/>
  <polygon class="st0" points="1120.1 526.3 1119.2 527.7 1127.4 533.2 1128.5 531.4 1120.4 525.9 1120.1 526.3"/>
  <polygon class="st0" points="1086.6 567.8 1085.4 568.9 1092.5 575.8 1094 574.3 1086.9 567.4 1086.6 567.8"/>
  <polygon class="st0" points="646 143 638.8 136 638.5 136.4 637.4 137.6 644.5 144.5 646 143"/>
  <polygon class="st0" points="1046.3 602.8 1045 603.8 1050.8 611.7 1052.5 610.5 1046.7 602.5 1046.3 602.8"/>
  <polygon class="st0" points="686.4 108.1 680.6 100.1 680.2 100.4 678.9 101.3 684.7 109.4 686.4 108.1"/>
  <polygon class="st0" points="1000.6 630.4 999.1 631.1 1003.4 639.9 1005.3 638.9 1001 630.2 1000.6 630.4"/>
  <polygon class="st0" points="732.3 80.8 727.9 71.9 727.5 72.2 726 72.9 730.4 81.7 732.3 80.8"/>
  <polygon class="st0" points="779.5 52.4 779 52.5 777.5 53 780.2 62.5 782.2 61.9 782.1 61.4 779.5 52.4"/>
  <polygon class="st0" points="950.7 649.6 949.2 650 949.3 650.5 951.9 659.4 953.9 658.8 951.2 649.4 950.7 649.6"/>
  <polygon class="st0" points="886.7 41.7 886 51.1 888.1 51.2 888.8 41.3 886.7 41.2 886.7 41.7"/>
  <polygon class="st0" points="843.2 661.1 842.6 670.5 844.7 670.6 845.4 660.8 843.2 660.7 843.2 661.1"/>
  <polygon class="st0" points="790.4 652.7 788.1 661.7 790.2 662.2 792.5 652.7 790.5 652.2 790.4 652.7"/>
  <polygon class="st0" points="941.1 50.1 938.8 59.2 940.9 59.7 943.2 50.1 941.2 49.6 941.1 50.1"/>
  <polygon class="st0" points="991.3 77.2 995.3 68.2 993.4 67.3 993.2 67.8 989.4 76.3 991.3 77.2"/>
  <polygon class="st0" points="740 634.7 739.8 635.1 736 643.6 738 644.5 742 635.5 740 634.7"/>
  <polygon class="st0" points="693.4 608.7 693.1 609.1 687.9 616.8 689.6 618 695.2 609.8 693.4 608.7"/>
  <polygon class="st0" points="1037.9 103.2 1043.5 95 1041.7 93.8 1041.5 94.2 1036.2 102 1037.9 103.2"/>
  <polygon class="st0" points="1079.3 136.9 1086.2 129.7 1084.7 128.3 1084.4 128.6 1077.8 135.4 1079.3 136.9"/>
  <polygon class="st0" points="652 575 651.7 575.3 645.2 582.1 646.7 583.5 653.6 576.4 652 575"/>
  <polygon class="st0" points="617.1 534.7 616.7 534.9 609.1 540.5 610.4 542.2 618.4 536.4 617.1 534.7"/>
  <polygon class="st0" points="1114.2 177.2 1122.2 171.4 1121 169.6 1120.6 169.9 1113 175.5 1114.2 177.2"/>
  <polygon class="st0" points="581.8 495.1 590.7 490.8 589.7 488.9 589.3 489.1 580.9 493.2 581.8 495.1"/>
  <polygon class="st0" points="1150.5 218.6 1149.6 216.7 1149.1 216.9 1140.7 221 1141.7 222.9 1150.5 218.6"/>
  <polygon class="st0" points="571.3 441.2 570.7 439.1 570.3 439.3 561.3 441.8 561.9 443.9 571.3 441.2"/>
  <polygon class="st0" points="1169 268.1 1160.1 270.7 1160.7 272.7 1170.1 270 1169.5 268 1169 268.1"/>
  <polygon class="st0" points="827.7 42.8 826.1 43 827.3 52.8 829.4 52.5 828.2 42.7 827.7 42.8"/>
  <polygon class="st0" points="903.6 659.2 902 659.4 903.2 669.1 905.3 668.9 904.1 659.1 903.6 659.2"/>
  <polygon class="st0" points="561.6 394.2 561.4 392.1 560.9 392.2 551.5 393.3 551.8 395.4 561.6 394.2"/>
  <polygon class="st0" points="1179.1 316.5 1169.8 317.6 1170 319.7 1179.8 318.5 1179.6 316.4 1179.1 316.5"/>
  <polygon class="st0" points="1181.7 371.4 1171.8 370.9 1171.8 371.3 1171.7 373 1181.6 373.5 1181.7 371.4"/>
  <polygon class="st0" points="549.8 338.8 549.7 340.5 559.6 341 559.7 338.9 549.8 338.3 549.8 338.8"/>
  <polygon class="st0" points="557.6 284.4 557.2 286 566.8 288.2 567.3 286.1 557.7 283.9 557.6 284.4"/>
  <polygon class="st0" points="1174.2 425.8 1164.6 423.6 1164.5 424.1 1164.2 425.7 1173.7 427.9 1174.2 425.8"/>
  <polygon class="st0" points="584 235.5 574.9 231.7 574.7 232.1 574.1 233.6 583.1 237.5 584 235.5"/>
  <polygon class="st0" points="1148.1 474.8 1147.5 476.3 1156.5 480.1 1157.3 478.2 1148.3 474.4 1148.1 474.8"/>
  <polygon class="st0" points="609.3 188.6 600.9 183.2 600.7 183.6 599.8 185 608.1 190.4 609.3 188.6"/>
  <polygon class="st0" points="1123.1 521.9 1122.2 523.2 1130.4 528.6 1131.6 526.8 1123.3 521.5 1123.1 521.9"/>
  <polygon class="st0" points="642.3 146.8 635 140 634.7 140.4 633.6 141.6 640.9 148.3 642.3 146.8"/>
  <polygon class="st0" points="1090.2 563.9 1089.1 565.1 1096.3 571.8 1097.8 570.3 1090.6 563.5 1090.2 563.9"/>
  <polygon class="st0" points="1050.6 599.6 1049.3 600.6 1055.2 608.5 1056.9 607.2 1051 599.3 1050.6 599.6"/>
  <polygon class="st0" points="682.1 111.3 676.1 103.4 675.8 103.7 674.4 104.6 680.4 112.6 682.1 111.3"/>
  <polygon class="st0" points="727.5 83.2 723 74.4 722.6 74.6 721.1 75.3 725.6 84.1 727.5 83.2"/>
  <polygon class="st0" points="1005.4 628 1003.9 628.7 1008.4 637.4 1010.2 636.5 1005.8 627.8 1005.4 628"/>
  <polygon class="st0" points="955.9 648 954.3 648.5 957.2 657.9 959.2 657.2 956.3 647.9 955.9 648"/>
  <polygon class="st0" points="773.7 54.1 772.2 54.6 775.1 64 777.1 63.4 774.2 54 773.7 54.1"/>
  <polygon class="st0" points="848.6 661.5 848.1 670.8 850.2 671 850.7 661.1 848.6 661 848.6 661.5"/>
  <polygon class="st0" points="881.2 41.3 880.7 50.8 882.8 50.9 883.3 41 881.2 40.9 881.2 41.3"/>
  <polygon class="st0" points="935.7 48.8 933.6 57.9 935.7 58.4 937.9 48.8 935.8 48.3 935.7 48.8"/>
  <polygon class="st0" points="795.6 653.9 793.5 663 795.5 663.5 797.7 653.9 795.7 653.5 795.6 653.9"/>
  <polygon class="st0" points="986.4 75 990.3 66 988.3 65.2 988.1 65.6 984.5 74.2 986.4 75"/>
  <polygon class="st0" points="744.9 636.8 744.7 637.3 741.1 645.9 743 646.7 746.9 637.7 744.9 636.8"/>
  <polygon class="st0" points="697.9 611.6 697.6 612 692.5 619.9 694.3 621 699.6 612.8 697.9 611.6"/>
  <polygon class="st0" points="1033.5 100.2 1038.9 91.9 1037.1 90.8 1036.8 91.2 1031.7 99.1 1033.5 100.2"/>
  <polygon class="st0" points="1075.4 133.2 1082.2 125.9 1080.7 124.5 1080.3 124.9 1073.9 131.7 1075.4 133.2"/>
  <polygon class="st0" points="655.9 578.6 655.6 579 649.1 585.9 650.7 587.3 657.5 580.1 655.9 578.6"/>
  <polygon class="st0" points="1117.3 165.5 1109.8 171.2 1111.1 172.9 1119 166.9 1117.7 165.2 1117.3 165.5"/>
  <polygon class="st0" points="621.6 540.6 620.3 539 619.9 539.3 612.4 544.9 613.7 546.6 621.6 540.6"/>
  <polygon class="st0" points="593.1 495.6 592.1 493.7 591.7 493.9 583.3 498.2 584.3 500 593.1 495.6"/>
  <polygon class="st0" points="1146.7 212 1138.3 216.2 1139.3 218.1 1148 213.7 1147.1 211.8 1146.7 212"/>
  <polygon class="st0" points="1167.5 262.8 1158.5 265.5 1159.1 267.6 1168.5 264.7 1167.9 262.7 1167.5 262.8"/>
  <polygon class="st0" points="572.9 446.3 572.3 444.2 571.8 444.4 562.8 447.1 563.4 449.1 572.9 446.3"/>
  <polygon class="st0" points="908.9 658.5 907.3 658.7 908.7 668.4 910.8 668.1 909.4 658.4 908.9 658.5"/>
  <polygon class="st0" points="822.2 43.5 820.6 43.7 822 53.5 824.1 53.2 822.7 43.4 822.2 43.5"/>
  <polygon class="st0" points="562.4 399.5 562.1 397.6 561.6 397.5 552.7 398.7 552.2 398.8 552.5 400.8 562.4 399.5"/>
  <polygon class="st0" points="1178.4 311 1169.1 312.3 1169.3 314.4 1179.1 313.1 1178.8 311 1178.4 311"/>
  <polygon class="st0" points="549.5 344.3 549.5 346 559.4 346.3 559.5 344.2 549.5 343.8 549.5 344.3"/>
  <polygon class="st0" points="1181.9 365.9 1172 365.5 1172 366 1171.9 367.6 1181.8 368 1181.9 365.9"/>
  <polygon class="st0" points="1165.7 418.9 1165.3 420.5 1174.9 422.5 1175.4 420.5 1165.8 418.4 1165.7 418.9"/>
  <polygon class="st0" points="566.1 291.3 556.4 289.3 556.3 289.8 556 291.4 565.7 293.4 566.1 291.3"/>
  <polygon class="st0" points="1150.1 469.9 1149.5 471.4 1158.6 475 1159.4 473.1 1150.3 469.4 1150.1 469.9"/>
  <polygon class="st0" points="581.9 240.5 572.7 236.8 572.6 237.2 572 238.7 581.1 242.4 581.9 240.5"/>
  <polygon class="st0" points="1125.9 517.4 1125.1 518.8 1133.4 524 1134.5 522.2 1126.2 517 1125.9 517.4"/>
  <polygon class="st0" points="606.4 193.1 598 187.9 597.7 188.3 596.8 189.7 605.3 194.9 606.4 193.1"/>
  <polygon class="st0" points="1093.8 560 1092.8 561.2 1100.1 567.8 1101.5 566.2 1094.2 559.6 1093.8 560"/>
  <polygon class="st0" points="638.7 150.7 631.3 144.1 631 144.4 629.9 145.6 637.3 152.3 638.7 150.7"/>
  <polygon class="st0" points="677.9 114.5 671.7 106.7 671.4 107 670.1 108 676.2 115.8 677.9 114.5"/>
  <polygon class="st0" points="1054.9 596.4 1053.5 597.4 1053.9 597.7 1059.6 605.1 1061.3 603.8 1055.2 596.1 1054.9 596.4"/>
  <polygon class="st0" points="722.7 85.6 718.1 76.9 717.7 77.1 716.2 77.9 720.9 86.6 722.7 85.6"/>
  <polygon class="st0" points="1010.1 625.5 1008.7 626.3 1013.3 634.9 1015.1 633.9 1010.5 625.3 1010.1 625.5"/>
  <polygon class="st0" points="961 646.4 959.4 646.9 962.4 656.2 964.4 655.6 961.4 646.3 961 646.4"/>
  <polygon class="st0" points="768.5 55.7 766.9 56.3 770 65.6 772 65 768.9 55.6 768.5 55.7"/>
  <polygon class="st0" points="853.9 661.7 853.6 671.1 855.7 671.2 856 661.3 853.9 661.3 853.9 661.7"/>
  <polygon class="st0" points="875.7 41.1 875.3 50.5 877.4 50.6 877.5 50.2 877.8 40.7 875.7 40.6 875.7 41.1"/>
  <polygon class="st0" points="800.8 655.1 798.9 664.2 800.9 664.7 803 655.1 800.9 654.6 800.8 655.1"/>
  <polygon class="st0" points="932.5 47.6 930.4 47.2 930.3 47.6 928.4 56.8 930.4 57.2 932.5 47.6"/>
  <polygon class="st0" points="749.9 638.9 749.7 639.3 746.2 648 748.1 648.8 751.8 639.7 749.9 638.9"/>
  <polygon class="st0" points="981.5 73 985.2 63.8 983.2 63.1 983 63.5 979.5 72.2 981.5 73"/>
  <polygon class="st0" points="702.4 614.5 702.1 614.9 697.1 622.9 698.9 624 704.2 615.6 702.4 614.5"/>
  <polygon class="st0" points="1029 97.3 1034.2 89 1032.4 87.9 1032.2 88.3 1027.2 96.2 1029 97.3"/>
  <polygon class="st0" points="661.4 583.7 659.8 582.3 659.5 582.6 653.2 589.6 654.8 591 661.4 583.7"/>
  <polygon class="st0" points="1076.3 121.2 1069.9 128.1 1071.5 129.6 1071.8 129.2 1078.2 122.2 1076.6 120.8 1076.3 121.2"/>
  <polygon class="st0" points="1115.6 162.5 1114.3 160.9 1114 161.2 1106.5 167 1107.8 168.6 1115.6 162.5"/>
  <polygon class="st0" points="617 550.9 624.8 544.9 623.5 543.2 623.2 543.5 615.7 549.3 617 550.9"/>
  <polygon class="st0" points="1144.1 207.1 1135.8 211.5 1136.8 213.4 1145.5 208.8 1144.5 206.9 1144.1 207.1"/>
  <polygon class="st0" points="595.6 500.3 594.6 498.4 594.2 498.7 585.8 503.1 586.8 504.9 595.6 500.3"/>
  <polygon class="st0" points="1165.8 257.6 1156.9 260.5 1157.5 262.5 1166.9 259.4 1166.2 257.4 1165.8 257.6"/>
  <polygon class="st0" points="574.5 451.3 573.9 449.3 573.4 449.5 564.5 452.4 565.1 454.4 574.5 451.3"/>
  <polygon class="st0" points="914.2 657.7 912.6 657.9 914.1 667.6 916.2 667.3 914.7 657.6 914.2 657.7"/>
  <polygon class="st0" points="816.8 44.3 815.2 44.5 816.7 54.3 818.8 54 817.2 44.2 816.8 44.3"/>
  <polygon class="st0" points="1177.5 305.6 1168.3 307.1 1168.6 309.1 1178.3 307.6 1178 305.5 1177.5 305.6"/>
  <polygon class="st0" points="563.2 404.7 562.8 402.7 562.3 402.8 553 404.2 553.4 406.3 563.2 404.7"/>
  <polygon class="st0" points="1182 360.4 1172.1 360.2 1172.1 360.7 1172.1 362.3 1182 362.5 1182 360.4"/>
  <polygon class="st0" points="549.4 349.8 549.3 351.5 559.3 351.6 559.3 349.5 549.4 349.4 549.4 349.8"/>
  <polygon class="st0" points="565.1 296.6 555.3 294.7 555.2 295.2 554.9 296.8 564.7 298.6 565.1 296.6"/>
  <polygon class="st0" points="1166.7 413.7 1166.4 415.3 1176 417.1 1176.4 415.1 1166.8 413.2 1166.7 413.7"/>
  <polygon class="st0" points="1152.1 464.9 1151.5 466.4 1160.7 469.9 1161.4 468 1152.3 464.5 1152.1 464.9"/>
  <polygon class="st0" points="579.9 245.4 570.7 241.9 570.5 242.3 569.9 243.8 579.2 247.4 579.9 245.4"/>
  <polygon class="st0" points="603.5 197.7 603.1 197.4 595 192.5 594.8 193 594 194.4 602.5 199.5 603.5 197.7"/>
  <polygon class="st0" points="1128.7 512.8 1127.9 514.2 1136.3 519.3 1137.4 517.5 1129 512.4 1128.7 512.8"/>
  <polygon class="st0" points="635.1 154.7 627.6 148.2 627.3 148.5 626.2 149.8 633.7 156.3 635.1 154.7"/>
  <polygon class="st0" points="1097.4 556 1096.3 557.2 1103.8 563.6 1105.1 562.1 1097.7 555.6 1097.4 556"/>
  <polygon class="st0" points="1059 593 1057.7 594.1 1064 601.7 1065.6 600.4 1059.4 592.7 1059 593"/>
  <polygon class="st0" points="673.7 117.8 667.4 110.1 667 110.4 665.8 111.5 672 119.2 673.7 117.8"/>
  <polygon class="st0" points="1014.8 622.9 1013.4 623.7 1018.1 632.3 1020 631.3 1015.2 622.7 1014.8 622.9"/>
  <polygon class="st0" points="718 88.2 713.2 79.5 712.8 79.8 711.4 80.5 716.2 89.2 718 88.2"/>
  <polygon class="st0" points="965.7 644.8 964.5 645.3 964.7 645.7 967.7 654.5 969.7 653.8 966.5 644.6 965.7 644.8"/>
  <polygon class="st0" points="763.2 57.5 761.7 58 764.9 67.3 766.9 66.6 763.7 57.3 763.2 57.5"/>
  <polygon class="st0" points="859.3 661.9 859.1 671.3 861.2 671.3 861.4 661.4 859.3 661.4 859.3 661.9"/>
  <polygon class="st0" points="870.1 41 870 50.4 872.1 50.5 872.3 40.6 870.1 40.5 870.1 41"/>
  <polygon class="st0" points="925.2 56.2 927.1 46.5 925 46.1 924.9 46.5 923.1 55.8 925.2 56.2"/>
  <polygon class="st0" points="806.2 655.7 806.1 656.2 804.3 665.3 806.4 665.7 808.2 656.1 806.2 655.7"/>
  <polygon class="st0" points="977.9 61.5 974.5 70.2 976.5 71 980 61.8 978.1 61.1 977.9 61.5"/>
  <polygon class="st0" points="756.8 641.6 754.8 640.9 754.7 641.3 751.3 650 753.3 650.8 756.8 641.6"/>
  <polygon class="st0" points="706.7 617.7 701.8 625.7 703.6 626.8 708.7 618.4 706.9 617.3 706.7 617.7"/>
  <polygon class="st0" points="1029.5 86.1 1027.7 85 1027.5 85.4 1022.6 93.5 1024.4 94.5 1029.5 86.1"/>
  <polygon class="st0" points="1074 118.5 1072.4 117.2 1072.1 117.5 1065.9 124.6 1067.5 126 1074 118.5"/>
  <polygon class="st0" points="663.5 586.2 657.3 593.3 658.9 594.7 665.4 587.2 663.8 585.8 663.5 586.2"/>
  <polygon class="st0" points="1110.5 156.9 1103.2 162.8 1104.5 164.4 1112.2 158.2 1110.9 156.6 1110.5 156.9"/>
  <polygon class="st0" points="628.2 549 626.9 547.4 626.5 547.7 619.2 553.6 620.5 555.2 628.2 549"/>
  <polygon class="st0" points="1141.5 202.3 1133.2 206.8 1134.1 208.4 1134.7 208.4 1142.9 203.9 1141.9 202.1 1141.5 202.3"/>
  <polygon class="st0" points="598.1 505 597.1 503.1 596.7 503.4 588.5 507.9 589.5 509.8 598.1 505"/>
  <polygon class="st0" points="1164 252.4 1155.2 255.4 1155.9 257.4 1165.2 254.2 1164.5 252.2 1164 252.4"/>
  <polygon class="st0" points="576.2 456.4 575.5 454.4 575.1 454.6 566.2 457.6 566.9 459.6 576.2 456.4"/>
  <path class="st0" d="M880.8,690.4h3v15.8h5.2v2.2c-3.6.3-5.1.6-6,4.2h-2.2v-22.2Z"/>
  <path class="st0" d="M865.7,700.9c-2.5,0-4.6-1.3-4.6-4.3s2.4-4.2,4.5-4.2c3.9,0,4.7,2.7,4.7,4.4s-1.5,4.1-4.6,4.1ZM858.9,706.9c0,2.6,1.9,5.7,6.9,5.7s6.8-3.8,6.8-6.1-1.1-3.6-3-4.3c2.3-.9,3.8-2.7,3.8-5.4s0-3.5-2.3-5.3c-1.8-1.4-4.1-1.7-5.4-1.7-5.3,0-7.5,3.4-7.5,7s.6,4.1,3.6,5.4c-1,.5-2.9,1.5-2.9,4.7ZM865.8,703.2c2,0,3.9,1.3,3.9,3.4s-.7,3.5-3.7,3.5-4.2-2-4.2-3.3c0-2,1.5-3.6,4-3.6Z"/>
  <path class="st0" d="M843.4,701.2c0-5.6,1.5-8.9,4.7-8.9s4.7,3.4,4.7,8.9-1.5,8.9-4.7,8.9-4.7-3.3-4.7-8.9ZM840.4,701.2c0,4.6,1.2,11.4,7.6,11.4s7.6-6.8,7.6-11.4-1.2-11.4-7.6-11.4-7.6,6.8-7.6,11.4Z"/>
  <path class="st0" d="M754.8,271.5c-12.2,15.7-20.7,33.4-25.3,52.6v.3c0,0,1.5-.2,1.5-.2v-.2c4.6-18.8,12.9-36.1,24.8-51.4h.1c0-.1-.9-1.4-.9-1.4l-.2.2Z"/>
  <path class="st0" d="M832.4,489.6c-19.3-4.7-37.1-13.3-52.7-25.7h-.1c0-.1-.1,0-.1,0l-1.1.8.2.2c16,12.7,34.1,21.5,53.9,26.2h.3c0,0-.2-1.5-.2-1.5h-.2Z"/>
  <path class="st0" d="M1000.4,386.4l-1.2.2v.2c-4.6,19.8-13.2,37.9-25.9,54h-.1c0,.1.9,1.4.9,1.4l.2-.2c12.7-16.2,21.9-35.2,26.3-55.2v-.3c0,0-.3,0-.3,0Z"/>
  <path class="st0" d="M949,464.7c-16.1,12.4-34.3,21-54,25.4h-.2s-.2,1.6-.2,1.6h.3c19.9-4.5,39-13.4,55.2-26l.2-.2-1.2-.9h-.1Z"/>
  <path class="st0" d="M780.5,247.9c15.4-12,32.8-20.4,51.7-25h.2s.2-1.6.2-1.6h-.3c-19.3,4.7-37.1,13.3-52.9,25.6l-.2.2,1.2.9h.1Z"/>
  <path class="st0" d="M730.8,387v-.2s-1.6-.2-1.6-.2v.3c4.5,19.5,13,37.4,25.1,53.3l.2.3.9-1.2h-.1c-11.9-15.7-20.1-33.3-24.5-52.3Z"/>
  <path class="st0" d="M998.8,324.5l1.6.2v-.3c-4.8-20-13.7-38.3-26.6-54.4l-.2-.2-.2.2-.7,1h.1c12.6,16,21.3,33.9,26,53.4v.2Z"/>
  <path class="st0" d="M895,222.3h.2c19.3,4.4,37.2,12.7,53,24.7h.1c0,.1,1.2-.8,1.2-.8l-.3-.2c-16.2-12.3-34.4-20.8-54.2-25.2h-.3c0,0,0,.3,0,.3l.2,1.2Z"/>
  <path class="st0" d="M982.7,178.2l1.1-1.1c-30.5-20.2-65.1-31.8-100.2-34.8l.2,1.6c34.7,3.1,68.8,14.5,98.9,34.3Z"/>
  <path class="st0" d="M745.9,177.1l1.1,1.1c30.1-19.9,64.3-31.3,99-34.3l.2-1.6c-35.2,3-69.8,14.6-100.3,34.8Z"/>
  <path class="st0" d="M1043.1,473.4l1.1,1.1c20.2-30.4,31.9-64.9,34.9-99.9l-1.6.2c-3.1,34.6-14.5,68.6-34.4,98.6Z"/>
  <path class="st0" d="M1044.2,237.3l-1.1,1.1c19.9,30,31.4,64,34.4,98.6l1.6.2c-3-35.1-14.6-69.5-34.9-100Z"/>
  <path class="st0" d="M747.1,533.6l-1.1,1.1c30.5,20.2,65.1,31.8,100.3,34.8l-.2-1.6c-34.7-3-68.8-14.5-98.9-34.3Z"/>
  <path class="st0" d="M983.8,534.8l-1.1-1.1c-30.1,19.8-64.2,31.3-98.9,34.3l-.2,1.6c35.2-3,69.7-14.6,100.2-34.8Z"/>
  <path class="st0" d="M686.6,238.5l-1.1-1.1c-20.2,30.4-31.9,64.9-34.9,100l1.6-.2c3.1-34.6,14.5-68.6,34.4-98.6Z"/>
  <path class="st0" d="M685.5,474.5l1.1-1.1c-19.9-30-31.4-64-34.4-98.6l-1.6-.2c3,35.1,14.7,69.5,34.9,99.9Z"/>
  <path class="st0" d="M1132,301.6h2c-21.8-107.4-106.9-192.3-214.6-214v2c106.7,21.7,190.9,105.6,212.6,212Z"/>
  <path class="st0" d="M919.4,622.2v2c107.8-21.7,192.8-106.5,214.6-214h-2c-21.7,106.3-106,190.3-212.6,211.9Z"/>
  <path class="st0" d="M597.8,410.3h-2c21.8,107.4,106.9,192.2,214.6,213.9v-2c-106.6-21.7-190.8-105.6-212.6-211.9Z"/>
  <path class="st0" d="M810.3,89.6v-2c-107.7,21.7-192.8,106.6-214.6,214h2c21.7-106.3,105.9-190.3,212.6-212Z"/>
  <polygon class="st1" points="335.6 594.6 335.6 594.6 362.8 543.7 335.6 349.9 335.6 594.6"/>
  <path class="st0" d="M863.9,111.2v244.7l1.9.5,27.3-51.2-27.2-194.1h-2ZM865.9,125.7c3.4,24.6,25,178.5,25.1,179.1-.3.5-21.9,40.9-25.1,47V125.7Z"/>
  <polygon class="st0" points="864.9 355.9 1110.4 355.9 916 328.8 864.9 355.9"/>
  <path class="st0" d="M915.5,328l-51,27.1.5,1.9h245.4v-2c.1,0-194.6-27.1-194.6-27.1l-.3.2ZM916.1,329.9c.6,0,155,21.6,179.7,25h-226.9c6.1-3.3,46.6-24.8,47.2-25Z"/>
  <polygon class="st3" points="419.6 698.6 419.6 698.6 368.5 671.5 174.1 698.6 419.6 698.6"/>
  <path class="st0" d="M813.7,327.9l-194.4,27.1v2h245.6l.5-1.9-51.3-27.3h-.3ZM813.7,329.9c.5.3,41,21.8,47.2,25h-226.9c24.6-3.4,179.1-25,179.7-25Z"/>
  <polygon class="st0" points="864.9 355.9 864.9 111.2 837.7 305.1 864.9 355.9"/>
  <path class="st0" d="M836.7,304.9v.3s27.3,51.2,27.3,51.2l1.9-.5V111.2h-2c0-.1-27.2,193.7-27.2,193.7ZM863.9,125.7v226.2c-3.3-6.1-24.8-46.5-25.1-47,0-.6,21.7-154.6,25.1-179.1Z"/>
  <polygon class="st0" points="864.9 355.9 864.9 600.7 892.1 406.8 864.9 356 864.9 355.9"/>
  <path class="st0" d="M863.9,355.9v244.7h2c0,.1,27.2-194,27.2-194l-27.3-51.2-1.9.5ZM865.9,360c3.3,6.1,24.8,46.5,25.1,47,0,.6-21.7,154.6-25.1,179.2v-226.2Z"/>
  <polygon class="st6" points="1246.3 935.9 1246.3 935.9 1297.3 963 1491.7 935.9 1246.3 935.9"/>
  <path class="st0" d="M864.9,354.9l-.5,1.9,51.3,27.3,194.7-27.2v-2h-245.6ZM1095.8,357c-24.6,3.4-179.1,25-179.7,25.1-.5-.3-41-21.8-47.2-25.1h226.9Z"/>
  <polygon class="st0" points="864.9 355.9 619.5 355.9 813.9 383 864.9 355.9"/>
  <path class="st0" d="M619.5,354.9v2c-.1,0,194.6,27.2,194.6,27.2l51.3-27.3-.5-1.9h-245.4ZM860.9,357c-6.1,3.3-46.6,24.8-47.2,25.1-.6,0-155.1-21.6-179.7-25.1h226.9Z"/>
  <polygon class="st8" points="608.4 812.2 635.6 1006 635.6 761.3 635.6 761.3 608.4 812.2"/>
  <path class="st0" d="M836.8,406.4l-.2.3,27.2,194.1h2v-244.9l-1.9-.5-27.2,50.9ZM863.9,360v226.2c-3.4-24.6-25-178.6-25.1-179.2.3-.5,21.9-40.9,25.1-47Z"/>
  <polygon class="st0" points="864.9 355.9 864.9 355.9 989.4 231.8 892.1 305.1 864.9 355.9"/>
  <path class="st0" d="M891.5,304.2h-.2c0,.1-27.3,51.2-27.3,51.2l1.6,1.2,124.5-124.1-1.3-1.5-97.3,73.2ZM978.4,241.4c-16.6,16.5-101.3,101-109.4,109.1,5-9.3,23.7-44.4,23.9-44.7.3-.2,67.5-50.8,85.5-64.3Z"/>
  <polygon class="st7" points="222.6 195.5 296.1 98.5 171.6 222.6 222.6 195.5"/>
  <path class="st0" d="M864.2,355.2l1.2,1.6,51.2-27.2,73.6-97.2-1.5-1.3-124.5,124.1ZM979.8,242.8c-13.6,17.9-64.3,84.9-64.5,85.3-.3.2-35.6,18.9-44.9,23.8,8.1-8.1,92.8-92.6,109.4-109.1Z"/>
  <polygon class="st0" points="740.4 231.8 813.9 328.8 864.9 355.9 740.4 231.8"/>
  <path class="st0" d="M739.6,232.5l73.6,97.2,51.2,27.2,1.2-1.6-124.5-124.1-1.5,1.3ZM750,242.8c16.6,16.5,101.3,101,109.4,109.1-9.3-4.9-44.5-23.6-44.9-23.8-.2-.3-51-67.3-64.5-85.3Z"/>
  <polygon class="st2" points="270.3 354.6 243.1 303.7 145.8 230.5 270.3 354.6"/>
  <path class="st0" d="M739.7,232.6l124.5,124.1,1.6-1.2-27.3-51.1-97.5-73.3-1.3,1.5ZM751.4,241.4c18,13.5,85.2,64.1,85.5,64.3.2.3,19,35.5,23.9,44.7-8.1-8.1-92.8-92.5-109.4-109.1Z"/>
  <polygon class="st5" points="1068.1 848.2 1165.4 921.4 1040.9 797.3 1068.1 848.2"/>
  <path class="st0" d="M864,356.4l27.3,51.1,97.5,73.3,1.3-1.5-124.5-124.1-1.6,1.2ZM869,361.5c8.1,8.1,92.8,92.5,109.4,109.1-18-13.5-85.2-64.1-85.5-64.3-.2-.3-18.9-35.5-23.9-44.7Z"/>
  <polygon class="st0" points="864.9 355.9 864.9 356 989.4 480.1 916 383 864.9 355.9"/>
  <path class="st0" d="M864.2,356.7l124.5,124.1,1.5-1.3-73.6-97.2-51.2-27.2-1.2,1.6ZM870.4,360c9.3,4.9,44.5,23.7,44.9,23.8.2.3,51,67.4,64.5,85.3-16.6-16.5-101.4-101.1-109.4-109.1Z"/>
  <polygon class="st4" points="124.5 613.7 124.5 613.7 73.4 640.8 0 737.8 124.5 613.7 124.5 613.7"/>
  <path class="st0" d="M813.4,382.2h-.2c0,.1-73.6,97.3-73.6,97.3l1.5,1.3,124.5-124.1-1.2-1.6-51,27.1ZM859.4,360c-8.1,8-92.9,92.6-109.4,109.1,13.6-17.9,64.3-85,64.5-85.3.3-.2,35.6-18.9,44.9-23.8Z"/>
  <polygon class="st0" points="740.4 480.1 837.7 406.8 864.9 356 740.4 480.1"/>
  <path class="st0" d="M739.7,479.3l1.3,1.5,97.5-73.3,27.3-51.1-1.6-1.2-124.5,124.1ZM860.8,361.5c-4.9,9.3-23.7,44.4-23.9,44.7-.3.2-67.5,50.8-85.5,64.3,16.6-16.5,101.3-101,109.4-109.1Z"/>
  <path class="st0" d="M619,338.7l-.3,1.8c-.4,0-.8.2-1.2.4-.4.2-.8.4-1.2.6-.6.4-1.1.8-1.4,1.3-.3.5-.7,1.1-1,1.9-1.2,2.7-3,6.6-5.3,11.8-2.3,5.2-4.8,10.8-7.4,16.6h-3.9l-2.3-25.2-10.7,25.2h-3.7c-.5-6-1-11.6-1.4-16.9-.4-5.3-.8-9.2-1-11.7,0-.8-.2-1.5-.4-1.9-.2-.4-.5-.8-1-1.3-.3-.3-.6-.5-1-.6-.3-.1-.7-.2-1.2-.3l.3-1.8h13.8l-.3,1.8c-.9.1-1.6.3-2.1.4-.5.1-.9.3-1.1.5-.2.2-.4.3-.4.5,0,.2,0,.4,0,.6,0,.3,0,.7,0,1.1,0,.4,0,.9,0,1.4,0,1.5.3,3.9.5,7.2.3,3.3.6,7.1.9,11.5l10.4-25h4l2.4,25.4c1.5-3.4,2.8-6.6,4.1-9.6,1.2-3,2.2-5.4,3-7.2.4-1.1.8-2.2,1.2-3.2.3-1,.5-1.6.5-1.9,0-.5-.3-.9-1-1.2-.6-.3-1.6-.5-2.8-.6l.3-1.8h10.9Z"/>
  <path class="st0" d="M886,63.8l-.3,1.8c-.4,0-.9.1-1.5.3-.7.1-1.3.4-2,.9-.5.4-1,1.2-1.4,2.2-.4,1.1-.8,2.6-1.1,4.7l-4.4,24.5h-3.2l-11.3-27.3-3,17c-.2.9-.3,1.7-.4,2.5,0,.8-.1,1.4-.1,1.9,0,.7,0,1.2.1,1.5,0,.4.2.7.4.9.3.4.8.7,1.5,1,.7.3,1.3.4,1.6.5l-.3,1.7h-11.4l.3-1.7c.3,0,.9-.2,1.6-.3.7-.2,1.3-.5,1.9-.9.5-.4,1-1.2,1.4-2.2.4-1,.7-2.6,1.1-4.7l2.9-16.1c0-.4.1-.7.2-1,0-.3,0-.6,0-.9,0-.5,0-.9-.1-1.4,0-.4-.2-.8-.5-1.2-.4-.5-.8-1-1.3-1.3-.5-.3-1.1-.5-1.8-.7l.3-1.8h9.8l9.9,24,2.5-13.9c.2-1,.3-1.9.4-2.5,0-.6.1-1.3.1-1.8s0-1.1-.2-1.5c-.1-.4-.3-.7-.4-1-.3-.4-.8-.7-1.5-.9-.7-.3-1.2-.5-1.6-.5l.3-1.8h11.4Z"/>
  <path class="st0" d="M1012.7,218.8l-1.8,1.2c-1.4-.6-2.6-1-3.4-1.4-.8-.4-1.6-1-2.4-1.8-1.2-1.2-1.8-2.5-1.8-3.8,0-1.3.5-2.5,1.4-3.5.3-.3.6-.6,1.1-1,.4-.4,1-.8,1.8-1.3l5.5-3.3c.6-.4,1.1-.7,1.5-1,.4-.3.8-.6,1-.9.5-.5.8-1.1.9-1.6,0-.5-.2-1.1-.8-1.7-.4-.4-1-.7-1.9-1.1-.9-.4-2.2-.5-3.8-.5l-14.6,9.5-5-5,12.4-8.1c.4-.2.9-.6,1.5-1,.6-.4,1.1-.8,1.4-1.1.6-.6,1-1.2,1-1.7s-.3-1-.9-1.7c-.3-.3-.7-.6-1.2-.8-.5-.2-.9-.4-1.2-.6l1.8-1.2c1.2.5,2.3.9,3.3,1.4,1,.5,1.9,1.1,2.5,1.7,1.2,1.2,1.8,2.4,1.9,3.5,0,1.1-.2,2.2-1,3.4h0c2,.1,3.8.4,5.4.9,1.6.5,3,1.4,4.3,2.6,1.1,1.1,1.7,2.3,1.7,3.7,0,1.3-.5,2.4-1.5,3.4-.3.3-.6.6-1.1,1-.5.4-1.1.8-1.7,1.2l-5.8,3.5c-.5.3-1,.6-1.6,1.1-.6.4-1,.8-1.2,1-.6.6-.9,1.2-.9,1.7,0,.5.4,1.1,1,1.7.3.3.7.6,1.2.9.5.3.9.4,1.1.5Z"/>
  <path class="st0" d="M1032.3,222.7c-.9.2-2,.1-3.1-.3-.5-.2-1.1-.5-1.8-1-.7-.5-1.4-1-2.1-1.5,2.3-1.9,4.5-3.2,6.6-3.9,2.1-.7,3.5-.6,4.3.2.6.6.8,1.3.6,2.1-.2.8-.7,1.7-1.7,2.6-.9.9-1.9,1.5-2.8,1.8ZM1024.1,233.8c2.3.6,4.6.6,6.9.2v-2.1c-2,.3-3.6.3-4.9,0-1.4-.3-2.6-1.1-3.8-2.3-.7-.7-1.1-1.4-1.3-2.1-.2-.7,0-1.5.2-2.2.2-.6.6-1.3,1.1-2,.5-.7,1-1.3,1.5-1.8,1.3,1,2.4,1.8,3.3,2.4,1,.6,2.2,1.3,3.7,2.1,1.8,1,3.6,1.5,5.3,1.4,1.7,0,3.2-.7,4.4-1.9,1.3-1.3,1.7-2.7,1.4-4.3-.3-1.6-1.4-3.3-3.2-5.1-1.5-1.5-3.3-2.7-5.1-3.4-1.9-.7-3.7-1-5.5-.9-1.9,0-3.7.5-5.3,1.3-1.7.8-3.2,1.8-4.5,3.1-1,1-1.8,2.1-2.4,3.3-.6,1.1-.9,2.3-.9,3.6,0,1.3.2,2.5.8,3.8.6,1.3,1.5,2.5,2.7,3.7,1.6,1.6,3.5,2.7,5.8,3.2Z"/>
  <path class="st0" d="M1017.4,490.5c1.3-1.3,2.5-2.2,3.5-2.8,1.1-.6,2-1,2.9-1.1.8-.1,1.6-.1,2.2.1.6.2,1,.5,1.4.9.6.6,1,1.4,1,2.3,0,.9-.3,1.8-1,2.5-.6.6-1.3.9-2,1-.7,0-1.5,0-2.3-.3-.7-.2-1.5-.5-2.2-.9-.7-.4-1.3-.7-1.7-.9-1.1,1.1-1.8,2.3-1.8,3.4,0,1.1.4,2.1,1.3,3.1.4.4.9.7,1.3.8.5.1.9.1,1.4,0,.5,0,1.1-.3,1.7-.5.7-.3,1.3-.5,1.9-.8,1.7-.8,3.3-1.1,4.8-1,1.5,0,2.9.7,4.1,1.9.7.7,1.2,1.5,1.6,2.4.3.9.4,2,.3,3.2-.1,1.1-.5,2.3-1.2,3.6-.7,1.3-1.6,2.6-2.9,3.8-.8.8-1.6,1.4-2.3,2-.8.6-1.6,1-2.4,1.3-.8.3-1.6.3-2.3.2-.7-.1-1.4-.5-2-1.1-.6-.6-.9-1.3-.9-2.2,0-.9.3-1.6,1-2.3.6-.6,1.2-.9,2-1,.7,0,1.4,0,2.1.2.7.2,1.4.5,2,.9.6.3,1.2.6,1.6.9.7-.8,1-1.7,1.1-2.8,0-1.1-.3-2-1.1-2.8-.5-.5-.9-.8-1.3-.9-.4-.1-.8-.2-1.2-.1-.5,0-1,.2-1.5.4-.6.2-1.3.5-2.1.9-1.9.8-3.6,1.2-5,1.2-1.4,0-2.8-.7-4-1.9-.8-.8-1.4-1.7-1.8-2.8-.4-1.1-.5-2.2-.4-3.3.2-1.2.6-2.4,1.2-3.6.6-1.2,1.7-2.5,3.1-3.9Z"/>
  <path class="st0" d="M1007.5,522.2c-.2-.9-.1-1.9.3-3.1.2-.5.5-1.1,1-1.8.5-.7,1-1.4,1.5-2.1,1.9,2.3,3.2,4.5,3.9,6.6.7,2.1.6,3.5-.2,4.3-.6.6-1.3.8-2.1.6-.8-.2-1.7-.7-2.6-1.7-.9-.9-1.5-1.9-1.8-2.8ZM996.3,514.1c-.6,2.3-.6,4.6-.1,6.9h2.1c-.3-2-.3-3.6,0-4.9.3-1.3,1.1-2.6,2.3-3.8.7-.7,1.4-1.1,2.2-1.3.8-.2,1.5-.1,2.2.1.6.2,1.3.6,2,1.1.7.5,1.3,1,1.8,1.5-1,1.3-1.8,2.4-2.5,3.3-.6.9-1.3,2.2-2.1,3.7-1,1.8-1.5,3.6-1.4,5.3,0,1.7.7,3.2,1.9,4.4,1.3,1.3,2.7,1.7,4.3,1.4,1.6-.3,3.3-1.4,5.1-3.2,1.5-1.6,2.7-3.2,3.4-5.1.7-1.9,1-3.7.9-5.5-.1-1.9-.5-3.7-1.3-5.3-.8-1.7-1.8-3.2-3.1-4.5-1-1-2.1-1.8-3.3-2.4-1.1-.6-2.3-.9-3.6-.9-1.3,0-2.5.2-3.8.8-1.3.6-2.5,1.5-3.8,2.7-1.6,1.6-2.7,3.5-3.3,5.8Z"/>
  <path class="st0" d="M720.2,219.2l1.2,1.8c-.6,1.4-1.1,2.6-1.4,3.4-.4.8-1,1.6-1.8,2.4-1.2,1.2-2.5,1.8-3.8,1.8-1.3,0-2.5-.5-3.5-1.4-.3-.3-.6-.6-1-1.1-.4-.5-.8-1-1.3-1.8l-3.3-5.5c-.4-.6-.7-1.1-1-1.5-.3-.4-.6-.8-.9-1-.5-.5-1.1-.8-1.6-.9-.5,0-1.1.2-1.7.8-.4.3-.7,1-1.1,1.9-.4.9-.5,2.2-.5,3.8l9.5,14.6-5,5-8.1-12.4c-.2-.4-.6-.9-1-1.5-.4-.6-.8-1.1-1.1-1.4-.6-.6-1.2-.9-1.7-.9s-1,.3-1.7.9c-.3.3-.6.7-.8,1.2-.2.5-.4.9-.6,1.2l-1.2-1.8c.5-1.2.9-2.3,1.4-3.3.5-1,1.1-1.9,1.7-2.5,1.2-1.2,2.4-1.9,3.5-1.9,1.1,0,2.2.2,3.4,1h.1c0-2.1.3-3.9.8-5.5.5-1.6,1.4-3,2.6-4.2,1.1-1.1,2.4-1.7,3.7-1.7,1.3,0,2.5.5,3.4,1.5.3.3.6.6,1,1.1.4.5.8,1.1,1.2,1.7l3.5,5.8c.3.5.6,1,1.1,1.6.4.6.8,1,1,1.2.6.6,1.2,1,1.7.9.5,0,1.1-.4,1.7-1,.3-.3.6-.7.9-1.2.3-.5.4-.9.5-1.1Z"/>
  <path class="st0" d="M739,180.1c1.6,1.6,3,3.5,4.1,5.5,1.1,2.1,1.8,4.2,2.2,6.2.3,2.2.3,4.3-.2,6.3-.5,2-1.5,3.8-3.1,5.5-1.5,1.5-3,2.4-4.6,2.7-1.6.3-3.1,0-4.6-.8.2,2.4,0,4.4-.4,6-.5,1.6-1.4,3-2.6,4.3-1.2,1.2-2.5,1.7-4,1.6-1.5-.1-2.8-.8-4-2-.4-.4-.8-.9-1.1-1.4-.3-.5-.6-1-1-1.6l-2.9-5c-.2-.4-.6-.9-1-1.5-.4-.6-.8-1.1-1-1.3-.6-.6-1.1-.9-1.6-.9-.5,0-1.1.3-1.7,1-.3.3-.6.7-.9,1.2-.2.4-.4.8-.6,1.2l-1.2-1.8c.5-1.2.9-2.3,1.4-3.3.5-1,1.1-1.9,1.8-2.5,1.2-1.2,2.5-1.8,3.8-1.8s2.5.5,3.5,1.5c.4.4.8.9,1.4,1.7.6.8,1,1.4,1.3,2l2.3,4.1c.3.4.6,1,1,1.6.4.6.8,1,1,1.2.6.6,1.3,1,2,1,.7,0,1.2-.2,1.7-.6.1-.1.3-.3.5-.6.2-.3.4-.6.5-1.1.1-.4.3-1,.4-1.7,0-.7.1-1.5,0-2.4-.2-.2-.5-.5-.8-.9-.3-.4-.7-.9-1.2-1.6l-7.6-11.6,4.6-5.1h.4s7.5,11.6,7.5,11.6c.1.2.3.5.7,1,.4.5.8.9,1.2,1.4.9.9,1.9,1.4,2.8,1.5.9,0,1.7-.4,2.6-1.2,1.4-1.4,2-3.2,1.9-5.3-.1-2.1-1.1-4.1-3-6-.2-.2-.4-.4-.6-.6-.2-.2-.5-.4-.9-.6-.4-.1-.8-.2-1.4-.2-.6,0-1.1,0-1.7,0-.6,0-1.3-.1-2-.4-.7-.2-1.4-.7-2-1.4-.6-.5-.9-1.1-1.1-1.7-.2-.6-.2-1.1-.2-1.7,0-.4.2-.9.4-1.3.2-.5.5-.8.8-1.1,1-1,2.1-1.3,3.4-1.1,1.3.2,2.5,1,3.8,2.2Z"/>
  <path class="st0" d="M740.9,515.6c1.3,1.3,2.2,2.5,2.9,3.5.6,1.1,1,2,1.1,2.9.1.9,0,1.6-.1,2.2-.2.6-.5,1.1-.9,1.4-.6.6-1.4,1-2.3,1-.9,0-1.8-.3-2.5-1-.6-.6-.9-1.3-1-2,0-.7,0-1.5.3-2.3.2-.7.5-1.5.9-2.2.4-.7.7-1.3.9-1.6-1.2-1.1-2.3-1.7-3.4-1.8-1.1,0-2.1.4-3.1,1.3-.4.4-.7.8-.8,1.3-.1.4-.1.9,0,1.4,0,.5.3,1,.5,1.7.3.6.5,1.3.8,1.9.8,1.7,1.1,3.3,1,4.8,0,1.5-.7,2.9-1.9,4.1-.7.7-1.5,1.2-2.5,1.6-.9.3-2,.4-3.1.3-1.1-.1-2.4-.5-3.6-1.2-1.3-.7-2.6-1.6-3.8-2.9-.8-.8-1.5-1.5-2-2.3-.6-.8-1-1.6-1.3-2.4-.3-.8-.4-1.6-.2-2.3.1-.7.5-1.4,1.1-2,.6-.6,1.3-.9,2.2-.9.9,0,1.6.3,2.3,1,.6.6.9,1.2,1,2,0,.7,0,1.4-.2,2.1-.2.7-.5,1.4-.9,2-.3.6-.6,1.2-.9,1.6.8.7,1.7,1,2.8,1.1,1.1,0,2-.3,2.8-1.1.5-.5.8-.9.9-1.3.1-.4.2-.8.1-1.2,0-.5-.2-1-.4-1.6-.2-.6-.5-1.3-.9-2.1-.8-1.9-1.2-3.6-1.2-5,0-1.4.7-2.8,1.9-4,.8-.8,1.7-1.4,2.8-1.8,1.1-.4,2.2-.5,3.3-.4,1.2.2,2.5.6,3.6,1.2,1.2.6,2.5,1.7,3.9,3.1Z"/>
  <path class="st0" d="M689.5,490.9c1.6-1.6,3.5-3,5.6-4.1,2.1-1.1,4.2-1.8,6.3-2.2,2.2-.4,4.3-.3,6.3.2,2,.5,3.9,1.5,5.5,3.1,1.5,1.5,2.4,3,2.7,4.6.3,1.5,0,3.1-.8,4.6,2.4-.2,4.4,0,6,.4,1.6.5,3.1,1.4,4.3,2.6,1.2,1.2,1.7,2.5,1.6,4-.1,1.5-.8,2.8-2,4-.4.4-.9.8-1.4,1.1-.5.3-1,.7-1.6,1l-5,2.9c-.4.2-.9.6-1.5,1-.6.4-1.1.8-1.3,1-.6.6-.9,1.1-.9,1.6,0,.5.3,1.1,1,1.7.3.3.7.6,1.2.8.5.2.9.4,1.2.6l-1.8,1.2c-1.2-.5-2.3-.9-3.3-1.4-1-.5-1.9-1.1-2.5-1.8-1.2-1.2-1.8-2.5-1.8-3.8,0-1.3.5-2.5,1.5-3.5.4-.4.9-.8,1.7-1.4.8-.6,1.4-1,2-1.3l4.1-2.3c.4-.2,1-.6,1.6-1,.6-.4,1-.8,1.2-1,.6-.6,1-1.3,1-2,0-.7-.2-1.2-.6-1.7-.1-.1-.3-.3-.6-.5-.3-.2-.6-.4-1.1-.5-.4-.2-1-.3-1.7-.4-.7,0-1.5-.1-2.4,0-.2.2-.5.5-.9.8-.4.3-.9.7-1.6,1.2l-11.7,7.6-5.1-4.6v-.4c0,0,11.6-7.5,11.6-7.5.2,0,.5-.3,1-.7.5-.4.9-.8,1.4-1.2,1-1,1.4-1.9,1.5-2.8,0-.9-.4-1.7-1.2-2.6-1.4-1.4-3.2-2-5.3-1.9-2.1.1-4.1,1.1-6,3-.2.2-.4.4-.6.6-.2.3-.4.5-.6.9-.1.4-.2.8-.2,1.4,0,.6,0,1.1,0,1.7,0,.6-.2,1.3-.4,2-.2.7-.7,1.4-1.4,2-.6.6-1.1.9-1.7,1.1-.6.2-1.1.2-1.7.2-.4,0-.9-.2-1.3-.4-.5-.2-.8-.5-1.1-.8-1-1-1.4-2.1-1.1-3.4.2-1.3,1-2.6,2.2-3.8Z"/>
  <path class="st0" d="M1147.5,337.6l-1.7,8.8h-1.5c-.2-1.5-.6-2.9-1.3-4.2-.7-1.3-1.5-2-2.2-2.2-.4-.1-.9-.2-1.6-.2-.7,0-1.3,0-1.7,0h-3.9l-2.5,13.4h2.7c1,0,1.8-.1,2.3-.4.6-.3,1.1-.6,1.6-1.1.4-.4.8-1,1.3-2,.5-1,.8-1.8,1-2.5h1.4l-2.7,14.4h-1.5v-.9c0-.7,0-1.5-.2-2.3-.1-.8-.3-1.3-.4-1.6-.4-.6-.8-1-1.4-1.2-.6-.2-1.2-.3-1.9-.3h-2.7l-1.8,9.6c-.1.5-.2,1-.3,1.6,0,.6-.1,1-.1,1.2,0,1,.3,1.7.8,2,.5.3,1.6.4,3.1.4s3.3-.1,4.1-.3c.9-.2,1.5-.5,1.9-.9.8-.8,1.7-2,2.8-3.7,1.1-1.6,1.8-2.9,2.2-3.7h1.5l-2.6,10.7h-25.9l.3-1.8c.3,0,.8,0,1.5-.2.6,0,1.1-.2,1.4-.3.5-.2.9-.5,1.2-1,.3-.4.5-.9.6-1.5l4.5-24c0-.3.1-.6.1-.8,0-.2,0-.4,0-.5,0-.7-.3-1.2-.8-1.6-.6-.4-1.5-.7-2.7-.9l.3-1.8h24.5Z"/>
  <path class="st0" d="M861.5,648.4c-1.5,0-2.9-.2-4.4-.7-1.5-.4-2.8-1-3.9-1.8l-1.6,1.6h-1.6l2-11.8h1.6c.2,1.1.4,2.3.8,3.6.4,1.2.9,2.3,1.5,3.3.6,1,1.4,1.8,2.4,2.5,1,.7,2.1,1,3.3,1,1.8,0,3.3-.5,4.3-1.6,1.1-1.1,1.6-2.5,1.6-4.3s-.3-2.1-.9-3c-.6-.9-1.6-1.6-3-2.2-.9-.4-1.7-.8-2.5-1.1-.8-.4-1.6-.7-2.3-1.1-1.5-.8-2.6-1.8-3.3-3.2-.7-1.4-1.1-2.9-1.1-4.4s.3-2.8.8-4.2c.5-1.3,1.3-2.5,2.3-3.6,1-1,2.2-1.9,3.7-2.5,1.5-.6,3-.9,4.8-.9s2.9.3,4.3.8c1.4.5,2.5,1,3.1,1.5l1.4-1.4h1.6l-2,11.2h-1.6c-.2-1.3-.4-2.5-.7-3.7-.3-1.2-.7-2.2-1.3-3.1-.5-.9-1.2-1.6-1.9-2.1-.8-.5-1.7-.8-2.8-.8-1.5,0-2.8.5-3.8,1.6-1,1-1.5,2.3-1.5,3.9s.3,2.1.9,2.9c.6.8,1.6,1.6,2.9,2.2.8.4,1.6.7,2.4,1.1.8.4,1.6.8,2.4,1.2,1.4.7,2.6,1.7,3.4,3,.8,1.3,1.2,2.8,1.2,4.5s-.3,3.2-.9,4.6c-.6,1.4-1.5,2.7-2.6,3.7-1.2,1.1-2.5,1.9-4.1,2.5-1.5.6-3.2.9-5.1.9Z"/>
  <path class="st0" d="M970.6,303.7l-.8.2c-.4-.4-.8-.7-1.1-.9-.2-.2-.5-.6-.7-.9-.3-.6-.3-1.1-.2-1.6.2-.5.5-.8,1-1.1.1,0,.3-.1.5-.2.2,0,.5-.2.8-.2l2.4-.5c.3,0,.5-.1.7-.2.2,0,.4-.1.5-.2.3-.1.4-.3.5-.5,0-.2,0-.4,0-.7,0-.2-.3-.4-.6-.6-.3-.2-.7-.5-1.3-.7l-6.5,1.6-1.2-2.5,5.5-1.3c.2,0,.4,0,.7-.2.3,0,.5-.1.6-.2.3-.1.5-.3.6-.5,0-.2,0-.4-.1-.7,0-.2-.2-.3-.3-.4-.1-.1-.3-.3-.4-.4l.8-.2c.4.3.7.6,1,.9.3.3.5.6.7.9.3.6.4,1.1.3,1.5-.1.4-.4.8-.8,1.1h0c.7.3,1.3.6,1.9,1,.5.4.9.9,1.2,1.5.3.5.3,1.1.1,1.5-.2.5-.5.8-1,1-.1,0-.3.1-.5.2-.2,0-.5.2-.8.2l-2.6.5c-.2,0-.5.1-.7.2-.3,0-.5.1-.6.2-.3.2-.5.3-.6.5,0,.2,0,.4.1.7,0,.2.2.3.3.5.1.2.3.3.3.3Z"/>
  <path class="st0" d="M977.1,307.6c-.4,0-.7-.2-1.1-.5-.2-.1-.3-.3-.5-.6-.2-.3-.4-.5-.6-.8,1.1-.4,2-.6,2.9-.6.8,0,1.4.2,1.5.6.1.3.1.6,0,.8-.2.3-.5.5-.9.7-.5.2-.9.3-1.2.3ZM972.8,310.6c.8.5,1.6.8,2.5.9l.2-.8c-.7-.1-1.3-.3-1.7-.6-.4-.3-.8-.7-1.1-1.3-.2-.3-.2-.7-.2-.9,0-.3.2-.5.3-.8.2-.2.4-.4.7-.6.3-.2.5-.4.8-.5.3.5.6,1,.9,1.3.3.4.6.8,1.1,1.2.5.6,1.1,1,1.7,1.2.6.2,1.2.2,1.8-.1.6-.3,1-.8,1.1-1.4,0-.6,0-1.4-.5-2.3-.4-.8-.8-1.4-1.4-1.9-.6-.5-1.2-.8-1.9-1-.7-.2-1.4-.3-2.1-.2-.7,0-1.4.3-2,.6-.5.2-.9.5-1.3.9-.3.3-.6.7-.8,1.2-.2.5-.2.9-.2,1.5,0,.5.2,1.1.5,1.7.4.8.9,1.4,1.7,1.9Z"/>
  <path class="st0" d="M981,316.6c-.4,0-.7-.2-1.1-.5-.2-.1-.3-.3-.5-.6-.2-.3-.4-.5-.6-.8,1.1-.4,2-.6,2.9-.6.8,0,1.4.2,1.5.6.1.3.1.6,0,.8-.2.3-.5.5-.9.7-.5.2-.9.3-1.2.3ZM976.7,319.6c.8.5,1.6.8,2.5.9l.2-.8c-.7-.1-1.3-.3-1.7-.6-.4-.3-.8-.7-1.1-1.3-.2-.3-.2-.7-.2-.9,0-.3.2-.5.3-.8.2-.2.4-.4.7-.6.3-.2.5-.3.8-.5.3.5.6,1,.9,1.3.3.4.6.8,1.1,1.2.5.6,1.1,1,1.7,1.2.6.2,1.2.2,1.8-.1.6-.3,1-.7,1.1-1.4,0-.6,0-1.4-.5-2.3-.4-.8-.8-1.4-1.4-1.9-.6-.5-1.2-.8-1.9-1-.7-.2-1.4-.3-2.1-.2-.7,0-1.4.3-2,.6-.5.2-.9.5-1.3.9-.3.3-.6.7-.8,1.2-.2.4-.2.9-.2,1.5,0,.5.2,1.1.5,1.7.4.8.9,1.4,1.7,1.9Z"/>
  <path class="st0" d="M926,457c.7-.2,1.2-.4,1.7-.4.5,0,.9,0,1.2,0,.3,0,.6.2.7.4.2.2.3.3.4.5.1.3.1.7,0,1-.1.3-.4.6-.8.7-.3.1-.6.1-.9,0-.3-.1-.5-.3-.8-.5-.2-.2-.4-.4-.6-.7-.2-.3-.3-.5-.4-.6-.6.2-1,.5-1.2.9-.2.4-.2.8,0,1.3,0,.2.2.4.3.5.1.1.3.2.5.2.2,0,.4,0,.7,0,.3,0,.5,0,.8,0,.7,0,1.3.1,1.8.4.5.3.9.7,1.1,1.3.1.4.2.7.2,1.1,0,.4-.2.8-.4,1.2-.2.4-.6.7-1,1.1-.4.3-1,.6-1.6.9-.4.1-.8.3-1.1.3-.4,0-.7.1-1,0-.3,0-.6-.1-.8-.3-.2-.2-.4-.4-.5-.7-.1-.3-.1-.6,0-.9.1-.3.4-.5.7-.6.3-.1.6-.1.8,0,.3,0,.5.2.7.4.2.2.4.4.6.6.2.2.3.4.4.6.4-.2.6-.4.8-.8.2-.4.2-.8,0-1.1,0-.2-.2-.4-.3-.5-.1-.1-.3-.2-.4-.2-.2,0-.4,0-.6,0-.2,0-.5,0-.9,0-.8,0-1.5-.1-1.9-.4-.5-.2-.9-.7-1.1-1.3-.2-.4-.2-.8-.2-1.3,0-.4.2-.8.4-1.2.3-.4.6-.8,1-1.1.4-.3,1-.6,1.7-.9Z"/>
  <path class="st0" d="M917.6,460.6c.6-.2,1.2-.4,1.7-.4.5,0,.9,0,1.2,0,.3,0,.6.2.7.4.2.2.3.3.4.5.1.3.1.7,0,1-.1.3-.4.6-.8.7-.3.1-.6.1-.9,0-.3,0-.5-.3-.8-.5-.2-.2-.4-.4-.6-.7-.2-.3-.3-.5-.4-.6-.6.2-1,.5-1.2.9-.2.4-.2.8,0,1.3,0,.2.2.4.3.5.1.1.3.2.5.2.2,0,.4,0,.7,0,.3,0,.5,0,.8,0,.7,0,1.3.1,1.8.4.5.3.9.7,1.1,1.3.1.4.2.7.2,1.1,0,.4-.2.8-.4,1.2-.2.4-.6.7-1,1.1-.4.3-1,.6-1.6.9-.4.2-.8.3-1.1.3-.4,0-.7,0-1,0-.3,0-.6-.1-.8-.3-.2-.2-.4-.4-.5-.7-.1-.3-.1-.6,0-.9.1-.3.4-.5.7-.6.3-.1.6-.1.8,0,.3,0,.5.2.7.4.2.2.4.4.6.6.2.2.3.4.4.6.4-.2.6-.4.8-.8.2-.4.2-.8,0-1.1,0-.2-.2-.4-.3-.5-.1-.1-.3-.2-.4-.2-.2,0-.4,0-.6,0-.2,0-.5,0-.9,0-.8,0-1.4-.1-1.9-.4-.5-.2-.9-.7-1.1-1.3-.2-.4-.2-.8-.2-1.3,0-.4.2-.8.4-1.2.3-.4.6-.8,1-1.1.4-.3,1-.6,1.7-.9Z"/>
  <path class="st0" d="M908.3,470.3c0-.4.3-.7.6-1,.1-.1.4-.3.6-.5.3-.2.6-.3.9-.5.3,1.1.4,2.1.3,2.9,0,.8-.3,1.3-.7,1.5-.3.1-.6,0-.8-.1-.3-.2-.5-.5-.7-1-.2-.5-.2-.9-.2-1.3ZM905.7,465.7c-.6.7-1,1.5-1.2,2.4l.8.3c.2-.7.4-1.3.8-1.7.3-.4.8-.7,1.4-1,.4-.1.7-.2,1,0,.3,0,.5.2.8.4.2.2.4.4.5.7.2.3.3.6.4.8-.5.3-1,.5-1.4.8-.4.2-.8.5-1.3.9-.6.5-1.1,1-1.4,1.6-.3.6-.3,1.2,0,1.8.2.6.7,1,1.3,1.2.6.1,1.4,0,2.3-.3.8-.3,1.5-.7,2-1.2.5-.5.9-1.1,1.2-1.8.3-.7.4-1.4.4-2.1,0-.7-.1-1.4-.4-2.1-.2-.5-.4-1-.8-1.4-.3-.4-.7-.7-1.1-.9-.4-.2-.9-.3-1.5-.3-.5,0-1.1.1-1.7.3-.8.3-1.5.8-2.1,1.5Z"/>
  <path class="st0" d="M753.5,317.6l.6.5c0,.6,0,1.1-.1,1.4,0,.3-.2.7-.4,1.1-.3.6-.7,1-1.2,1.1-.5.2-1,.1-1.4-.1-.1,0-.3-.2-.5-.3-.2-.1-.4-.3-.7-.5l-1.8-1.6c-.2-.2-.4-.3-.6-.4-.2-.1-.3-.2-.4-.3-.3-.1-.5-.2-.7-.1-.2,0-.4.2-.5.5,0,.2-.1.4-.2.8,0,.4,0,.9.2,1.5l5.1,4.3-1.3,2.4-4.4-3.6c-.1-.1-.3-.3-.5-.4-.2-.2-.4-.3-.6-.4-.3-.2-.5-.2-.7-.2s-.3.2-.5.5c0,.2-.1.3-.2.5,0,.2,0,.4,0,.5l-.6-.5c0-.5,0-.9.1-1.4,0-.4.2-.8.3-1.1.3-.6.7-.9,1.1-1.1.4-.2.8-.2,1.3,0h0c-.2-.8-.3-1.5-.3-2.1,0-.7.2-1.3.5-1.9.3-.5.7-.9,1.2-1,.5-.1,1,0,1.4.2.1,0,.3.2.5.3.2.1.4.3.6.5l2,1.7c.2.1.3.3.6.5.2.2.4.3.5.3.3.2.6.2.7.1.2,0,.3-.3.5-.6,0-.1.1-.3.2-.5,0-.2,0-.4,0-.5Z"/>
  <path class="st0" d="M755.9,301.2c.8.4,1.5.9,2.1,1.6.6.6,1.1,1.3,1.5,2,.4.8.6,1.5.6,2.3,0,.8-.1,1.6-.5,2.4-.4.7-.8,1.2-1.4,1.5-.5.3-1.1.4-1.8.2.4.8.5,1.6.5,2.2,0,.6-.2,1.3-.5,1.9-.3.6-.7.9-1.3,1-.6.1-1.1,0-1.7-.3-.2-.1-.4-.2-.6-.4-.2-.1-.4-.3-.5-.5l-1.6-1.5c-.1-.1-.3-.3-.6-.4-.2-.2-.4-.3-.5-.4-.3-.2-.5-.2-.7-.2-.2,0-.4.2-.5.5,0,.2-.1.3-.2.5,0,.2,0,.4,0,.5l-.6-.5c0-.5,0-.9.1-1.4,0-.4.2-.8.4-1.1.3-.6.7-1,1.2-1.1.5-.2,1,0,1.5.2.2,0,.4.2.7.5.3.2.5.4.7.6l1.3,1.2c.1.1.3.3.6.5.2.2.4.3.5.3.3.2.6.2.8.1.3,0,.4-.2.5-.4,0,0,0-.2.1-.3,0-.1,0-.3,0-.4,0-.2,0-.4,0-.7,0-.3-.1-.6-.3-.9,0,0-.2-.1-.4-.3-.2-.1-.4-.3-.6-.4l-4.1-3.4,1.1-2.4h.2s4.1,3.3,4.1,3.3c0,0,.2.1.4.3.2.1.4.3.6.4.5.2.9.3,1.2.2.3,0,.6-.3.8-.7.4-.7.4-1.4.1-2.2-.3-.8-.9-1.4-1.8-1.9,0,0-.2,0-.3-.1-.1,0-.2,0-.4-.1-.1,0-.3,0-.5.1-.2,0-.4.1-.6.2-.2,0-.5,0-.8,0-.3,0-.6,0-.9-.3-.3-.1-.5-.3-.6-.5-.1-.2-.2-.4-.3-.6,0-.2,0-.3,0-.5,0-.2,0-.4.2-.5.2-.5.6-.7,1.1-.8.5,0,1,0,1.6.4Z"/>
  <path class="st0" d="M763.6,286.5c.8.4,1.5.9,2.1,1.6.6.6,1.1,1.3,1.5,2,.4.8.6,1.5.6,2.3,0,.8-.1,1.6-.5,2.4-.4.7-.8,1.2-1.4,1.5-.5.3-1.1.4-1.8.2.3.8.5,1.6.5,2.2,0,.6-.2,1.3-.5,1.9-.3.6-.7.9-1.3,1-.6.1-1.1,0-1.7-.3-.2-.1-.4-.2-.6-.4-.2-.1-.4-.3-.5-.5l-1.6-1.5c-.1-.1-.3-.3-.5-.4-.2-.2-.4-.3-.5-.4-.3-.1-.5-.2-.7-.2-.2,0-.4.2-.5.5,0,.2-.1.3-.2.5,0,.2,0,.4,0,.5l-.6-.5c0-.5,0-.9.1-1.4,0-.4.2-.8.4-1.1.3-.6.7-1,1.2-1.1.5-.1,1,0,1.5.2.2,0,.4.2.7.5.3.2.5.4.7.6l1.3,1.2c.1.1.3.3.6.5.2.2.4.3.5.3.3.2.6.2.8.1.3,0,.4-.2.5-.4,0,0,0-.2.1-.3,0-.1,0-.3,0-.4,0-.2,0-.4,0-.7,0-.3-.1-.6-.3-.9,0,0-.2-.1-.4-.3-.2-.1-.4-.3-.6-.4l-4.1-3.4,1.1-2.4h.2s4.1,3.3,4.1,3.3c0,0,.2.1.4.3.2.1.4.3.6.4.5.2.9.3,1.2.2.3,0,.6-.3.8-.7.4-.7.4-1.4.1-2.2-.3-.8-.9-1.4-1.8-1.9,0,0-.2,0-.3-.1-.1,0-.2,0-.4-.1-.1,0-.3,0-.5.1-.2,0-.4.1-.6.2-.2,0-.5,0-.8,0-.3,0-.6,0-.9-.3-.3-.1-.5-.3-.6-.5-.1-.2-.2-.4-.3-.6,0-.2,0-.3,0-.5,0-.2,0-.4.2-.5.2-.5.6-.7,1.1-.8.5,0,1,0,1.6.4Z"/>
  <path class="st0" d="M767.7,421.4c.3.6.5,1.2.6,1.6,0,.5,0,.9,0,1.2,0,.3-.2.6-.3.8-.2.2-.3.3-.5.4-.3.1-.6.2-1,0-.3-.1-.6-.3-.8-.7-.1-.3-.2-.6,0-.9,0-.3.2-.5.4-.8.2-.2.4-.5.6-.7.2-.2.4-.4.5-.5-.3-.6-.6-.9-1-1.1-.4-.2-.8-.1-1.3,0-.2,0-.4.2-.4.4,0,.2-.2.3-.2.5,0,.2,0,.4,0,.7,0,.3,0,.5,0,.8,0,.7,0,1.3-.3,1.9-.2.5-.6.9-1.2,1.2-.4.2-.7.2-1.1.2-.4,0-.8-.1-1.2-.3-.4-.2-.8-.5-1.2-.9-.4-.4-.7-.9-1-1.6-.2-.4-.3-.7-.4-1.1-.1-.3-.2-.7-.1-1,0-.3,0-.6.2-.9.1-.2.4-.4.7-.6.3-.1.6-.2.9,0,.3.1.5.3.7.7.1.3.2.6,0,.8,0,.3-.2.5-.4.7-.2.2-.4.4-.6.6-.2.2-.4.3-.5.5.2.3.5.6.9.8.4.2.8.2,1.2,0,.2-.1.4-.2.5-.3.1-.1.2-.3.2-.4,0-.2,0-.4,0-.6,0-.2,0-.5,0-.9,0-.8,0-1.5.2-2,.2-.5.6-.9,1.2-1.2.4-.2.8-.3,1.2-.3s.8,0,1.2.3c.4.2.8.5,1.2.9.3.4.7.9,1,1.6Z"/>
  <path class="st0" d="M752.5,405.7c.8-.4,1.6-.6,2.5-.7.9-.1,1.7-.1,2.5,0,.8.2,1.6.5,2.3.9.7.4,1.2,1.1,1.6,1.8.3.7.5,1.4.4,2,0,.6-.4,1.1-.9,1.5.9.2,1.6.6,2.1.9.5.4.9.9,1.2,1.5.3.6.3,1.1,0,1.6-.2.5-.7.9-1.3,1.2-.2.1-.4.2-.6.2-.2,0-.4.1-.7.2l-2.2.4c-.2,0-.4,0-.7.2-.3,0-.5.1-.6.2-.3.1-.5.3-.6.5,0,.2,0,.4.1.8,0,.2.2.3.3.5.1.2.3.3.4.4l-.8.2c-.4-.3-.7-.6-1-1-.3-.3-.5-.6-.7-1-.3-.6-.3-1.1-.2-1.6.2-.5.5-.8,1-1.1.2,0,.5-.2.8-.3.4-.1.7-.2.9-.2l1.8-.3c.2,0,.4,0,.7-.2.3,0,.5-.1.6-.2.3-.1.5-.3.6-.6.1-.2.1-.5,0-.7,0,0,0-.2-.2-.3,0-.1-.2-.2-.3-.3-.1-.1-.3-.2-.6-.4-.3-.1-.5-.2-.9-.3-.1,0-.2,0-.4.2-.2,0-.4.1-.7.2l-5.2,1.2-1.2-2.3h0c0-.1,5.1-1.3,5.1-1.3,0,0,.2,0,.4-.1.2,0,.4-.2.7-.3.5-.2.8-.5.9-.8.1-.3,0-.7,0-1.1-.3-.7-.9-1.2-1.7-1.4-.8-.2-1.6-.2-2.6.3,0,0-.2,0-.3.2-.1,0-.2.1-.3.2-.1.1-.2.3-.2.5,0,.2-.1.4-.2.6,0,.2-.2.4-.4.7-.2.2-.4.4-.8.5-.3.1-.5.2-.8.2-.2,0-.4,0-.6-.2-.1,0-.3-.2-.4-.3-.1-.1-.2-.3-.3-.4-.2-.5-.2-.9,0-1.4.2-.4.7-.8,1.3-1.1Z"/>
  <path class="st0" d="M745.8,391.4c.8-.4,1.6-.6,2.5-.7.9-.1,1.7-.1,2.5,0,.8.2,1.6.5,2.3.9.7.4,1.2,1.1,1.6,1.8.3.7.5,1.4.4,2,0,.6-.4,1.1-.9,1.5.9.2,1.6.6,2.1.9.5.4.9.9,1.2,1.5.3.6.3,1.1,0,1.6-.2.5-.7.9-1.3,1.2-.2.1-.4.2-.6.2-.2,0-.4.1-.7.2l-2.2.4c-.2,0-.4,0-.7.2-.3,0-.5.1-.6.2-.3.1-.5.3-.6.5,0,.2,0,.4.1.8,0,.2.2.3.3.5.1.2.3.3.4.4l-.8.2c-.4-.3-.7-.6-1-1-.3-.3-.5-.6-.7-1-.3-.6-.3-1.1-.2-1.6.2-.5.5-.8,1-1.1.2,0,.5-.2.8-.3.4,0,.7-.2.9-.2l1.8-.3c.2,0,.4,0,.7-.2.3,0,.5-.1.6-.2.3-.1.5-.3.6-.6.1-.2.1-.5,0-.7,0,0,0-.2-.2-.3,0-.1-.2-.2-.3-.3-.1-.1-.3-.2-.6-.4-.3-.1-.5-.2-.9-.3,0,0-.2.1-.4.2-.2,0-.4.1-.7.2l-5.2,1.2-1.2-2.3h0c0-.1,5.2-1.3,5.2-1.3,0,0,.2,0,.4-.1.2,0,.4-.2.7-.3.5-.2.8-.5.9-.8.1-.3,0-.7,0-1.1-.3-.7-.9-1.2-1.7-1.4-.8-.2-1.6-.2-2.6.3,0,0-.2,0-.3.2-.1,0-.2.1-.3.2-.1.1-.2.3-.2.5,0,.2-.1.4-.2.6,0,.2-.2.4-.4.7-.2.2-.4.4-.8.5-.3.1-.5.2-.8.2-.2,0-.4,0-.6-.2-.1,0-.3-.2-.4-.3-.1-.2-.2-.3-.3-.4-.2-.5-.2-.9,0-1.4.3-.4.7-.8,1.3-1.1Z"/>
  <path class="st0" d="M921.1,252.9l-.5.7c-.6,0-1.1,0-1.4,0-.3,0-.7-.1-1.1-.3-.6-.3-1-.6-1.2-1.1-.2-.5-.2-1,0-1.4,0-.1.1-.3.3-.5.1-.2.3-.4.5-.7l1.5-1.9c.2-.2.3-.4.4-.6.1-.2.2-.3.2-.4.1-.3.2-.5.1-.7,0-.2-.2-.4-.5-.5-.2,0-.5-.1-.8-.1-.4,0-.9.1-1.4.3l-4,5.4-2.5-1.1,3.4-4.6c.1-.1.2-.3.4-.5.2-.2.3-.4.3-.6.1-.3.2-.6.1-.7,0-.2-.3-.3-.6-.5-.2,0-.3-.1-.5-.1-.2,0-.4,0-.5,0l.5-.7c.5,0,1,0,1.4,0,.4,0,.8.1,1.1.3.6.3,1,.6,1.2,1,.2.4.2.8.1,1.3h0c.7-.2,1.4-.4,2.1-.4.7,0,1.3,0,1.9.4.6.2.9.6,1.1,1.1.2.5.1,1,0,1.4,0,.1-.1.3-.3.5-.1.2-.3.4-.5.7l-1.6,2c-.1.2-.3.4-.4.6-.1.2-.3.4-.3.5-.1.3-.2.6-.1.7,0,.2.3.3.6.5.2,0,.3.1.6.2.2,0,.4,0,.5,0Z"/>
  <path class="st0" d="M910.3,248l-.5.7c-.6,0-1.1,0-1.4,0-.3,0-.7-.1-1.1-.3-.6-.3-1-.6-1.2-1.1-.2-.5-.2-1,0-1.4,0-.1.1-.3.2-.5.1-.2.3-.4.5-.7l1.5-1.9c.2-.2.3-.4.4-.6.1-.2.2-.3.3-.4.1-.3.2-.5.1-.7,0-.2-.2-.4-.5-.5-.2,0-.5-.1-.8-.1-.4,0-.9.1-1.4.3l-4,5.4-2.5-1.1,3.4-4.6c.1-.1.2-.3.4-.5.2-.2.3-.4.4-.6.1-.3.2-.6.1-.7,0-.2-.3-.3-.6-.5-.2,0-.3-.1-.5-.1-.2,0-.4,0-.5,0l.5-.7c.5,0,1,0,1.4,0,.4,0,.8.1,1.1.3.6.3,1,.6,1.2,1,.2.4.2.8.1,1.3h0c.7-.2,1.4-.4,2.1-.4.6,0,1.3,0,1.9.4.6.2.9.6,1.1,1.1.2.5.1,1,0,1.4,0,.1-.1.3-.3.5-.1.2-.3.4-.5.7l-1.6,2c-.1.2-.3.4-.4.6-.2.2-.3.4-.3.5-.1.3-.2.6-.1.7,0,.2.3.3.6.5.2,0,.3.1.6.2.2,0,.4,0,.5,0Z"/>
  <path class="st0" d="M928.7,251.7c-.3.2-.7.3-1.1.3-.2,0-.5,0-.8-.1-.3,0-.6-.2-1-.3.6-1,1.2-1.8,1.9-2.3.7-.5,1.2-.7,1.6-.5.3.1.4.4.5.7,0,.3,0,.7-.2,1.2-.2.5-.5.8-.8,1ZM927.3,256.8c.9,0,1.7-.4,2.5-.9l-.3-.7c-.6.4-1.2.6-1.7.6-.5,0-1.1,0-1.7-.3-.3-.2-.6-.4-.8-.6-.2-.2-.2-.5-.2-.8,0-.3,0-.5.1-.9,0-.3.2-.6.3-.9.6.2,1.1.3,1.5.4.4.1,1,.2,1.6.3.8.1,1.5,0,2.1-.2.6-.2,1-.7,1.3-1.3.3-.6.3-1.2,0-1.7-.3-.5-1-1-1.9-1.4-.8-.3-1.5-.5-2.3-.5-.8,0-1.5.1-2.1.4-.7.3-1.2.7-1.7,1.2-.5.5-.9,1.1-1.2,1.7-.2.5-.4,1-.4,1.5,0,.5,0,1,.2,1.4.2.5.4.9.8,1.3.4.4.9.7,1.5,1,.8.4,1.6.5,2.5.4Z"/>
  <path class="st0" d="M974.8,396.6c.3-.6.6-1.1.9-1.5.3-.4.6-.6.9-.8.3-.2.6-.2.8-.2.2,0,.4,0,.6.1.3.2.5.4.7.7.1.3.1.7,0,1-.1.3-.4.5-.6.6-.3.1-.6.2-.9.2-.3,0-.6,0-.9,0-.3,0-.6,0-.7-.1-.3.6-.4,1-.2,1.5s.4.7.9.9c.2.1.4.1.6.1.2,0,.4,0,.5-.2.2,0,.4-.2.6-.4.2-.2.4-.4.6-.5.5-.5,1.1-.8,1.6-1,.6-.2,1.1,0,1.7.2.3.2.6.4.9.7.2.3.4.7.5,1.1,0,.4,0,.9,0,1.5,0,.5-.3,1.1-.6,1.8-.2.4-.4.7-.6,1-.2.3-.4.6-.7.8-.3.2-.5.3-.8.4-.3,0-.6,0-.9-.2-.3-.1-.5-.4-.6-.7-.1-.3,0-.6,0-1,.1-.3.3-.5.6-.6.3-.1.5-.2.8-.2.3,0,.6,0,.8,0,.3,0,.5,0,.7.1.1-.4.2-.7,0-1.1-.1-.4-.4-.7-.7-.9-.2-.1-.4-.2-.6-.2-.2,0-.3,0-.5.1-.2,0-.3.2-.5.3-.2.2-.4.3-.6.6-.6.5-1.1.9-1.7,1.1-.5.2-1.1,0-1.7-.2-.4-.2-.7-.5-1-.8-.3-.3-.5-.7-.5-1.1,0-.5,0-1,0-1.5,0-.5.3-1.1.6-1.8Z"/>
  <path class="st0" d="M975.2,409.3c-.2-.3-.3-.7-.3-1.2,0-.2,0-.5.1-.8,0-.3.2-.6.3-1,1,.6,1.7,1.2,2.2,1.9.5.7.7,1.2.5,1.6-.1.3-.4.4-.7.5-.3,0-.7,0-1.2-.3-.5-.2-.8-.5-1-.8ZM970.1,407.8c0,.9.3,1.7.8,2.5l.8-.3c-.3-.6-.5-1.2-.6-1.7,0-.5,0-1.1.4-1.7.2-.3.4-.6.6-.7.3-.2.5-.2.8-.2.3,0,.5,0,.9.1.3,0,.6.2.8.3-.2.6-.4,1.1-.5,1.5-.1.4-.2,1-.3,1.6-.1.8,0,1.5.1,2.1.2.6.6,1.1,1.2,1.3.6.3,1.2.3,1.7,0,.5-.3,1-.9,1.5-1.8.4-.8.6-1.5.6-2.3,0-.8,0-1.5-.4-2.1-.3-.7-.7-1.3-1.1-1.8-.5-.5-1.1-.9-1.7-1.2-.5-.2-1-.4-1.5-.5-.5,0-1,0-1.4.1-.5.1-.9.4-1.3.8-.4.4-.7.8-1,1.4-.4.8-.5,1.6-.5,2.5Z"/>
  <path class="st0" d="M971.2,418.3c-.2-.3-.3-.7-.3-1.2,0-.2,0-.5.1-.8,0-.3.2-.6.3-1,1,.6,1.7,1.2,2.2,1.9.5.7.7,1.2.5,1.6-.1.3-.4.4-.7.5-.3,0-.7,0-1.2-.3-.5-.2-.8-.5-1-.8ZM966.1,416.8c0,.9.3,1.7.8,2.5l.8-.3c-.3-.6-.5-1.2-.6-1.7,0-.5,0-1.1.4-1.7.2-.3.4-.6.6-.7.3-.2.5-.2.8-.2.3,0,.5,0,.9.2.3,0,.6.2.8.3-.2.6-.4,1.1-.5,1.5-.1.4-.2,1-.3,1.6-.1.8,0,1.5.1,2.1.2.6.6,1.1,1.2,1.3.6.3,1.2.3,1.7,0,.5-.3,1-.9,1.5-1.8.4-.8.6-1.5.6-2.3,0-.8,0-1.5-.4-2.1-.3-.7-.7-1.3-1.1-1.8-.5-.5-1.1-.9-1.7-1.2-.5-.2-1-.4-1.5-.5-.5,0-1,0-1.4.1-.5.1-.9.4-1.3.8-.4.4-.7.8-1,1.4-.4.8-.5,1.6-.5,2.5Z"/>
  <path class="st0" d="M816.3,248.6l.2.8c-.4.4-.7.8-.9,1.1-.2.3-.5.5-.9.7-.6.3-1.1.4-1.6.2-.5-.2-.8-.5-1.1-.9,0-.1-.1-.3-.2-.5,0-.2-.2-.5-.2-.8l-.5-2.4c0-.3-.1-.5-.2-.7,0-.2-.1-.4-.2-.5-.1-.3-.3-.4-.5-.5-.2,0-.4,0-.7,0-.2,0-.4.3-.6.6-.2.3-.5.7-.7,1.3l1.6,6.5-2.5,1.2-1.4-5.5c0-.2-.1-.4-.2-.6,0-.3-.2-.5-.2-.6-.2-.3-.3-.5-.5-.5-.2,0-.4,0-.7.1-.2,0-.3.2-.4.3-.1.1-.3.3-.4.4l-.2-.8c.3-.4.6-.7.9-1,.3-.3.6-.5.9-.7.6-.3,1.1-.4,1.5-.3.4.1.8.4,1.1.8h0c.3-.7.6-1.4,1-1.9.4-.5.9-.9,1.5-1.2.6-.3,1.1-.3,1.5-.1.5.2.8.5,1.1,1,0,.1.1.3.2.5,0,.2.2.5.2.8l.6,2.6c0,.2.1.4.2.7,0,.3.2.5.2.6.2.3.3.5.5.5.2,0,.4,0,.8-.2.2,0,.3-.2.5-.3.2-.2.3-.3.3-.4Z"/>
  <path class="st0" d="M805.1,253.6l.2.8c-.4.4-.7.8-.9,1.1-.2.3-.5.5-.9.7-.6.3-1.1.4-1.6.2-.5-.2-.8-.5-1.1-.9,0-.1-.1-.3-.2-.5,0-.2-.2-.5-.2-.8l-.5-2.4c0-.3-.1-.5-.2-.7,0-.2-.1-.4-.2-.5-.1-.3-.3-.4-.5-.5-.2,0-.4,0-.7,0-.2,0-.4.3-.6.6-.2.3-.5.7-.7,1.3l1.6,6.5-2.5,1.2-1.4-5.5c0-.2-.1-.4-.2-.6,0-.3-.2-.5-.2-.6-.1-.3-.3-.5-.5-.6-.2,0-.4,0-.7.1-.2,0-.3.2-.4.3-.1.1-.3.3-.4.4l-.2-.8c.3-.4.6-.7.9-1,.3-.3.6-.5.9-.7.6-.3,1.1-.4,1.5-.3.4.1.8.4,1.1.8h0c.3-.7.6-1.4,1-1.9.4-.5.9-.9,1.5-1.2.6-.3,1.1-.3,1.5-.1.5.2.8.5,1.1,1,0,.1.1.3.2.5,0,.2.2.5.2.8l.6,2.6c0,.2.1.4.2.7,0,.3.2.5.2.6.2.3.3.5.5.5.2,0,.4,0,.8-.2.2,0,.3-.2.5-.3.2-.1.3-.3.3-.3Z"/>
  <path class="st0" d="M828,236.7c.4.8.7,1.6.8,2.5.1.9.1,1.7,0,2.5-.1.8-.4,1.6-.9,2.3-.4.7-1,1.2-1.8,1.6-.7.4-1.4.5-2,.4-.6,0-1.1-.4-1.6-.9-.2.9-.5,1.6-.9,2.1-.4.5-.9.9-1.5,1.2-.6.3-1.1.3-1.6,0-.5-.2-.9-.6-1.2-1.2-.1-.2-.2-.4-.2-.6,0-.2-.1-.4-.2-.7l-.4-2.2c0-.2-.1-.4-.2-.7,0-.3-.1-.5-.2-.6-.1-.3-.3-.5-.5-.5-.2,0-.4,0-.8.1-.2,0-.3.2-.5.3-.1.1-.3.3-.4.4l-.2-.8c.3-.4.6-.7.9-1,.3-.3.6-.5,1-.7.6-.3,1.1-.4,1.6-.2.5.2.8.5,1.1,1,0,.2.2.4.3.8.1.4.2.6.2.9l.3,1.8c0,.2,0,.4.2.7,0,.3.2.5.2.6.2.3.4.5.6.6.2,0,.5,0,.7,0,0,0,.2,0,.3-.2.1,0,.2-.2.3-.3.1-.1.2-.3.3-.6.1-.3.2-.5.3-.9,0,0-.1-.2-.2-.4,0-.2-.2-.4-.2-.7l-1.3-5.2,2.3-1.3h.1c0,0,1.3,5.2,1.3,5.2,0,0,0,.2.1.4,0,.2.2.4.3.7.2.5.5.8.8.9.3.1.7,0,1.1-.1.7-.3,1.1-.9,1.4-1.7.2-.8.1-1.6-.3-2.6,0,0,0-.2-.2-.3,0-.1-.1-.2-.2-.3-.1,0-.3-.2-.5-.2-.2,0-.4-.1-.6-.2-.2,0-.4-.2-.7-.4-.2-.2-.4-.4-.6-.7-.1-.3-.2-.5-.2-.7,0-.2,0-.4.1-.6,0-.1.2-.3.3-.4.1-.1.3-.2.4-.3.5-.2.9-.2,1.4,0,.4.2.8.7,1.1,1.3Z"/>
  <path class="st0" d="M820,463.2c.6.3,1.2.5,1.5.8.4.3.6.6.8.9.2.3.3.5.3.8,0,.2,0,.4-.1.6-.1.3-.4.6-.7.7-.3.2-.7.1-1,0-.3-.1-.5-.3-.7-.6-.1-.3-.2-.5-.2-.9,0-.3,0-.6,0-.9,0-.3,0-.6,0-.7-.6-.2-1.1-.3-1.5-.1-.4.1-.7.4-.9.9,0,.2-.1.4,0,.6,0,.2,0,.3.2.5.1.2.2.3.4.5.2.2.4.4.6.5.5.5.9,1,1.1,1.6.2.5.2,1.1,0,1.7-.1.4-.4.7-.6.9-.3.2-.6.4-1.1.6-.4.1-.9.2-1.5.1-.5,0-1.1-.2-1.8-.5-.4-.2-.7-.3-1.1-.5-.3-.2-.6-.4-.8-.7-.2-.2-.4-.5-.4-.8,0-.3,0-.6.1-.9.1-.3.3-.5.6-.6.3-.1.6-.1,1,0,.3.1.5.3.6.6.1.2.2.5.2.8,0,.3,0,.6,0,.8,0,.3,0,.5,0,.7.4.1.7.1,1.1,0,.4-.1.7-.4.8-.8,0-.2.1-.4.1-.6,0-.2,0-.3-.1-.4,0-.2-.2-.3-.4-.5-.2-.2-.4-.4-.6-.6-.6-.6-1-1.1-1.2-1.6-.2-.5-.2-1.1,0-1.7.2-.4.4-.7.7-1,.3-.3.7-.5,1.1-.6.5-.1,1-.2,1.5,0,.5,0,1.1.2,1.8.5Z"/>
  <path class="st0" d="M828.3,467c.6.3,1.2.5,1.5.8.4.3.6.6.8.9.2.3.3.5.3.8,0,.2,0,.5-.1.6-.1.3-.4.6-.7.7-.3.2-.7.2-1,0-.3-.1-.5-.3-.7-.6-.1-.3-.2-.5-.2-.9,0-.3,0-.6,0-.9,0-.3,0-.6,0-.7-.6-.2-1.1-.3-1.5-.1-.4.1-.7.4-.9.9,0,.2-.1.4,0,.6,0,.2,0,.3.2.5.1.2.2.3.4.5.2.2.4.4.6.5.5.5.9,1,1.1,1.6.2.5.2,1.1,0,1.7-.2.4-.4.7-.6.9-.3.3-.6.4-1.1.6-.4.1-.9.2-1.5.1-.5,0-1.1-.2-1.8-.5-.4-.2-.7-.3-1.1-.5-.3-.2-.6-.4-.8-.7-.2-.2-.4-.5-.4-.8,0-.3,0-.6,0-.9.1-.3.3-.5.6-.6.3-.1.6-.1,1,0,.3.1.5.3.6.6.1.2.2.5.2.8,0,.3,0,.6,0,.8,0,.3,0,.5,0,.7.4.1.7.1,1.1,0,.4-.1.7-.4.8-.8,0-.2.1-.4.1-.6,0-.2,0-.3-.1-.4,0-.2-.2-.3-.4-.5-.2-.2-.4-.4-.6-.6-.6-.6-1-1.1-1.2-1.6-.2-.5-.2-1.1,0-1.7.2-.4.4-.7.7-1,.3-.3.7-.5,1.1-.6.5-.1,1-.1,1.5,0,.5,0,1.1.2,1.8.5Z"/>
  <path class="st0" d="M798.1,461.8c.3-.8.8-1.6,1.4-2.2.6-.7,1.2-1.2,1.9-1.7.7-.4,1.5-.7,2.3-.8.8-.1,1.6,0,2.4.3.7.3,1.3.7,1.6,1.2.3.5.5,1.1.4,1.7.8-.4,1.6-.7,2.2-.7.6,0,1.3,0,1.9.3.6.2,1,.6,1.1,1.2.2.5.1,1.1-.1,1.7,0,.2-.2.4-.3.6-.1.2-.3.4-.4.6l-1.4,1.8c0,.1-.2.3-.4.6-.2.2-.3.4-.3.6-.1.3-.2.5,0,.7,0,.2.3.3.6.5.2,0,.3.1.5.1.2,0,.4,0,.5,0l-.5.7c-.5,0-1,0-1.4,0-.4,0-.8-.1-1.2-.3-.6-.3-1-.6-1.2-1.1-.2-.5-.2-1,0-1.5,0-.2.2-.4.4-.8.2-.3.4-.6.5-.8l1.1-1.4c.1-.2.3-.4.4-.6.2-.2.2-.4.3-.5.1-.3.2-.6,0-.8,0-.2-.2-.4-.5-.5,0,0-.2,0-.3,0-.1,0-.3,0-.5,0-.2,0-.4,0-.7.1-.3,0-.6.2-.9.3,0,.1-.1.2-.2.4-.1.2-.2.4-.4.6l-3,4.4-2.5-.9v-.2s3-4.3,3-4.3c0,0,.1-.2.2-.4.1-.2.2-.4.3-.6.2-.5.2-.9.1-1.2-.1-.3-.4-.6-.8-.7-.7-.3-1.4-.3-2.2,0-.7.3-1.3,1-1.7,1.9,0,0,0,.2-.1.3,0,.1,0,.2,0,.4,0,.1,0,.3.2.5,0,.2.2.4.3.6,0,.2.1.5.1.8,0,.3,0,.6-.2.9-.1.3-.3.5-.4.6-.2.1-.4.2-.6.3-.2,0-.3,0-.5,0-.2,0-.4,0-.5-.1-.5-.2-.8-.6-.9-1-.1-.5,0-1,.2-1.7Z"/>
  <path class="st0" d="M861.6,14.5c0-2.5,1.4-4.5,4.3-4.6,3.2,0,4.2,2.5,4.2,4.4,0,2.8-1.6,4.8-4.1,4.8-3.1,0-4.4-2.4-4.4-4.6ZM872.3,5.5c-.3-4.3-3.7-5.5-6.1-5.5-6.2,0-7.7,6.6-7.7,11.2,0,2.7.4,5.3,1.6,7.2,1.5,2.3,3.8,3,5.4,3,2.9,0,4.2-.8,5.3-2,1.4-1.5,2-3.1,2-5.2,0-5-4-6.6-6.5-6.6-2.8,0-4.3,1.5-4.9,2.6h0c0-2.3.8-7.8,4.9-7.8,2.2,0,3.3,1.4,3.6,3.2h2.6Z"/>
  <path class="st0" d="M847.6,9.6c.5,0,.9,0,1.4,0,2,0,4-.9,3.9-3.5,0-1.2-.8-3.3-3.9-3.2-3.7,0-3.9,3.1-4,4.5h-2.5c0-3,1.1-6.8,6.6-6.9,4,0,6.5,2.2,6.6,5.3,0,2.7-1.5,4-2.6,4.3h0c2,.7,3.5,2.1,3.6,4.8,0,3.4-2.1,6.7-7.4,6.8-1.5,0-2.8-.3-3.9-.8-2.3-1.2-3-3.6-3.2-5.9h2.7c.1,1.9.7,4.5,4.5,4.5,2.7,0,4.5-1.7,4.5-4.1,0-3.5-3.2-3.8-4.9-3.7-.4,0-.8,0-1.2,0v-2.2Z"/>
  <path class="st0" d="M886.6,10.6c.1,5.2-1.2,8.4-4.2,8.4-3,0-4.4-3.1-4.5-8.3-.1-5.2,1.2-8.4,4.2-8.4,3,0,4.4,3.1,4.5,8.3ZM889.4,10.5c0-4.3-1.4-10.7-7.4-10.5-6,.1-7,6.5-6.9,10.8,0,4.3,1.4,10.7,7.4,10.5,6-.1,7-6.5,6.9-10.8Z"/>
</svg>